<svg width="481" height="456" viewBox="0 0 481 456" fill="none" xmlns="http://www.w3.org/2000/svg">
<path d="M465.096 176.569C459.896 115.729 457.297 85.309 445.196 65.6277C410.549 9.27442 309.816 -4.1287 246.196 1.01106C161.024 7.89013 63.5872 54.3597 20.6972 144.081C-18.2581 225.573 -0.295619 317.816 58.4016 378.158C166.003 488.774 387.96 469.024 442.181 396.44C463.819 367.473 465.379 321.205 467.671 253.24C468.773 220.524 466.623 194.452 465.096 176.569Z" fill="#F4F7FA"/>
<path d="M424.281 37.222C418.775 32.8982 410.422 30.5433 403.361 30.0677C353.308 26.7015 346.003 125.997 353.675 148.188C361.347 170.379 356.376 177.665 316.956 189.275C277.536 200.885 296.447 223.239 301.252 236.311C306.056 249.384 315.571 260.427 286.834 273.416C258.097 286.406 268.084 294.454 268.084 294.454C268.084 294.454 321.079 345.902 318.152 329.431C315.225 312.96 320.529 288.088 368.043 286.197C388.509 285.383 419.849 276.118 426.788 255.32C428.405 250.476 429.529 243.079 428.3 238.067C426.594 231.113 421.786 225.634 419.116 219.089C412.894 203.838 428.501 192.669 437.482 182.474C442.172 177.152 446.858 171.694 450.448 165.626C457.904 153.028 455.112 139.517 446.994 127.904C443.1 122.336 437.691 116.427 435.993 109.784C434.169 102.65 435.759 92.9011 436.192 85.5612C436.531 79.8042 437.11 74.07 436.768 68.2984C436.137 57.5661 433.487 44.4512 424.281 37.222Z" fill="url(#paint0_linear_9_283)"/>
<g opacity="0.8">
<g opacity="0.8">
<path opacity="0.8" d="M263.917 323.331C263.574 323.448 263.184 323.309 263.011 322.995C262.822 322.652 262.961 322.226 263.323 322.047C263.546 321.937 285.857 310.799 310.745 292.455C333.679 275.552 363.555 248.9 375.651 217.917C385.754 192.04 394.967 149.261 400.93 100.551C406.277 56.8709 407.121 24.5666 404.849 18.5702C404.71 18.2054 404.911 17.8031 405.295 17.6712C405.68 17.5393 406.103 17.7299 406.242 18.0947C408.9 25.1105 407.214 61.3999 402.402 100.714C396.427 149.531 387.183 192.428 377.04 218.405C364.82 249.706 334.727 276.563 311.634 293.58C286.643 311.996 264.234 323.181 264.011 323.292C263.979 323.306 263.948 323.319 263.917 323.331Z" fill="white"/>
</g>
<g opacity="0.8">
<path opacity="0.8" d="M400.849 109.018C400.466 109.148 400.077 109.047 399.936 108.684C399.751 108.204 381.092 60.5598 357.031 49.8031C356.66 49.6386 356.511 49.2413 356.684 48.8895C356.859 48.5377 357.304 48.3993 357.672 48.5638C382.284 59.5664 400.556 106.21 401.323 108.195C401.463 108.56 401.237 108.886 400.852 109.016C400.851 109.018 400.849 109.018 400.849 109.018Z" fill="white"/>
</g>
<g opacity="0.8">
<path opacity="0.8" d="M391.749 164.27C391.464 164.367 391.131 164.291 390.927 164.055C390.668 163.755 390.712 163.312 391.028 163.066C391.165 162.959 404.903 152.264 421.853 143.289C444.756 131.162 462.308 127.777 474.021 133.227C474.389 133.398 474.54 133.819 474.359 134.167C474.179 134.516 473.736 134.659 473.369 134.488C446.419 121.948 392.509 163.726 391.968 164.149C391.901 164.203 391.826 164.244 391.749 164.27Z" fill="white"/>
</g>
<g opacity="0.8">
<path opacity="0.8" d="M331.939 277.207C331.864 277.233 331.785 277.246 331.701 277.247C331.292 277.254 330.956 276.944 330.949 276.555C330.946 276.352 330.565 255.91 326.057 234.37C321.923 214.622 313.388 189.886 296.201 184.186C295.815 184.057 295.611 183.657 295.747 183.292C295.88 182.925 296.304 182.732 296.689 182.86C311.02 187.612 321.39 204.857 327.512 234.116C332.044 255.778 332.425 276.329 332.428 276.534C332.435 276.843 332.229 277.107 331.939 277.207Z" fill="white"/>
</g>
<g opacity="0.8">
<path opacity="0.8" d="M362.523 244.18C362.223 244.283 361.876 244.192 361.677 243.936C361.433 243.623 361.504 243.184 361.831 242.954C364.215 241.281 420.436 202.054 442.361 205.8C442.764 205.868 443.03 206.235 442.958 206.616C442.886 206.998 442.501 207.253 442.098 207.183C420.795 203.543 363.29 243.677 362.712 244.083C362.653 244.127 362.588 244.158 362.523 244.18Z" fill="white"/>
</g>
</g>
<path d="M468.211 183.473C464.571 177.636 457.549 172.738 451.075 170.023C405.174 150.781 362.9 241.874 362.206 265.219C361.513 288.565 354.238 293.825 313.005 292.091C271.771 290.356 281.597 317.465 281.458 331.31C281.319 345.154 286.334 358.601 254.661 361.596C222.989 364.591 229.516 375.371 229.516 375.371C229.516 375.371 261.043 440.803 264.161 424.363C267.279 407.922 281.137 386.222 326.522 399.703C346.07 405.509 378.865 406.856 392.81 389.513C396.059 385.474 399.753 378.875 400.383 373.763C401.256 366.672 398.686 359.972 398.506 352.957C398.087 336.606 416.756 331.108 428.842 324.4C435.151 320.898 441.507 317.267 447.05 312.71C458.557 303.249 460.748 289.64 457.249 276.104C455.571 269.615 452.587 262.317 453.357 255.521C454.184 248.222 459.157 239.558 462.181 232.79C464.552 227.482 467.141 222.271 468.878 216.73C472.113 206.423 474.297 193.232 468.211 183.473Z" fill="url(#paint1_linear_9_283)"/>
<g opacity="0.8">
<g opacity="0.8">
<path opacity="0.8" d="M215.299 401.202C214.935 401.202 214.618 400.947 214.566 400.595C214.511 400.211 214.795 399.856 215.199 399.804C215.448 399.771 240.414 396.455 270.374 387.185C297.98 378.645 335.597 363.159 358.026 337.889C376.759 316.782 400.681 279.487 423.657 235.564C444.261 196.179 456.573 166.05 456.573 159.678C456.573 159.29 456.904 158.976 457.312 158.976C457.721 158.976 458.052 159.29 458.052 159.678C458.052 167.133 443.526 200.74 424.982 236.189C401.954 280.208 377.962 317.606 359.157 338.794C336.498 364.324 298.605 379.932 270.806 388.529C240.724 397.833 215.649 401.162 215.399 401.194C215.368 401.201 215.333 401.202 215.299 401.202Z" fill="white"/>
</g>
<g opacity="0.8">
<path opacity="0.8" d="M420.564 243.652C420.157 243.652 419.826 243.359 419.825 242.973C419.821 242.461 419.25 191.6 400.443 173.751C400.153 173.477 400.153 173.036 400.443 172.762C400.731 172.488 401.2 172.49 401.49 172.764C420.727 191.022 421.29 240.849 421.305 242.963C421.309 243.351 420.979 243.652 420.569 243.652C420.566 243.652 420.564 243.652 420.564 243.652Z" fill="white"/>
</g>
<g opacity="0.8">
<path opacity="0.8" d="M392.302 292.579C391.998 292.579 391.714 292.399 391.605 292.113C391.468 291.748 391.667 291.346 392.053 291.214C392.22 291.157 408.961 285.504 428.112 282.503C453.987 278.446 471.711 280.898 480.792 289.789C481.076 290.067 481.068 290.512 480.774 290.782C480.481 291.053 480.013 291.044 479.728 290.766C458.838 270.311 393.213 292.311 392.553 292.536C392.469 292.566 392.385 292.579 392.302 292.579Z" fill="white"/>
</g>
<g opacity="0.8">
<path opacity="0.8" d="M295.755 379.646C295.676 379.646 295.595 379.632 295.515 379.608C295.129 379.483 294.921 379.084 295.055 378.716C295.123 378.522 302.054 359.165 305.491 337.448C308.642 317.537 309.429 291.519 295.288 280.635C294.971 280.391 294.923 279.948 295.18 279.647C295.437 279.345 295.904 279.298 296.222 279.544C308.014 288.618 311.624 308.177 306.951 337.674C303.494 359.513 296.525 378.975 296.455 379.17C296.35 379.461 296.062 379.646 295.755 379.646Z" fill="white"/>
</g>
<g opacity="0.8">
<path opacity="0.8" d="M336.307 358.389C335.988 358.389 335.695 358.192 335.599 357.889C335.48 357.518 335.703 357.126 336.095 357.015C338.933 356.207 405.824 337.348 425.119 347.914C425.473 348.108 425.595 348.538 425.391 348.874C425.186 349.209 424.733 349.325 424.38 349.131C405.63 338.865 337.208 358.165 336.52 358.36C336.45 358.38 336.378 358.389 336.307 358.389Z" fill="white"/>
</g>
</g>
<path d="M314.344 19.3732L313.816 22.9659C312.06 23.0424 310.334 23.2574 308.654 23.6157L307.223 20.2641C306.834 19.3504 305.73 18.9156 304.761 19.2951L298.691 21.6679C297.72 22.0473 297.247 23.0994 297.634 24.0147L299.072 27.4086C297.602 28.2978 296.212 29.3042 294.918 30.4182L291.871 28.174C291.047 27.5682 289.853 27.718 289.202 28.5095L285.125 33.4604C284.471 34.2535 284.61 35.3902 285.434 35.9977L288.494 38.2549C287.679 39.7075 286.994 41.2416 286.441 42.8425L282.558 42.3588C281.515 42.2286 280.544 42.9305 280.389 43.9271L279.413 50.1711C279.257 51.171 279.977 52.0895 281.022 52.2198L284.918 52.7051C284.964 54.3907 285.158 56.0486 285.503 57.6625L281.848 59.1087C280.863 59.4979 280.379 60.5744 280.767 61.5108L283.202 67.3834C283.591 68.3247 284.708 68.7693 285.697 68.3768L289.353 66.9242C290.273 68.3443 291.321 69.683 292.485 70.9272L290.048 73.9303C289.389 74.7429 289.53 75.9057 290.364 76.5278L295.587 80.4168C296.423 81.039 297.636 80.8826 298.293 80.0667L300.701 77.0832C302.238 77.86 303.865 78.5065 305.562 79.0228L305.015 82.7457C304.865 83.7652 305.598 84.6983 306.652 84.8286L313.246 85.6494C314.301 85.7813 315.274 85.0599 315.422 84.0404L315.954 80.3452C317.747 80.2719 319.509 80.052 321.224 79.6856L322.67 83.0991C323.072 84.0469 324.196 84.4948 325.18 84.099L331.33 81.6252C332.314 81.2295 332.782 80.1432 332.379 79.1987L330.932 75.8096C332.434 74.8895 333.848 73.8456 335.159 72.6909L338.165 74.909C339.006 75.5295 340.21 75.3732 340.856 74.5605L344.883 69.4924C345.526 68.683 345.367 67.5284 344.528 66.9111L341.549 64.7191C342.361 63.2257 343.035 61.6476 343.57 60.0044L347.294 60.4685C348.339 60.5988 349.296 59.8904 349.432 58.8872L350.278 52.627C350.413 51.6287 349.677 50.7134 348.634 50.5831L344.921 50.1206C344.843 48.4139 344.617 46.7397 344.236 45.1128L347.68 43.7448C348.648 43.3604 349.106 42.2986 348.704 41.3736L346.189 35.6019C345.787 34.6801 344.679 34.2437 343.711 34.6264L340.246 35.9977C339.303 34.5922 338.235 33.2665 337.05 32.0402L339.339 29.2049C339.975 28.415 339.819 27.2865 338.992 26.6823L333.819 22.9089C332.991 22.3063 331.806 22.4545 331.167 23.2411L328.865 26.0797C327.337 25.3273 325.724 24.7019 324.041 24.2068L324.554 20.6419C324.695 19.6615 323.972 18.7609 322.938 18.6322L316.474 17.8277C315.444 17.7023 314.488 18.3912 314.344 19.3732ZM291.555 48.4741C293.424 36.1361 305.354 27.4868 318.215 29.0876C331.076 30.6885 340.109 41.9484 338.381 54.3028C336.643 66.7336 324.686 75.5523 311.685 73.9351C298.683 72.3163 289.676 60.8871 291.555 48.4741Z" fill="#D8DEE8"/>
<path d="M215.228 17.4251L214.411 22.9802C211.698 23.0974 209.028 23.4297 206.43 23.9834L204.218 18.8013C203.614 17.3877 201.911 16.7167 200.413 17.303L191.028 20.9721C189.527 21.5601 188.794 23.1837 189.394 24.6022L191.618 29.8495C189.345 31.224 187.195 32.7793 185.196 34.5039L180.477 31.0334C179.205 30.097 177.357 30.3299 176.352 31.5513L170.047 39.2056C169.037 40.4319 169.251 42.1891 170.524 43.1288L175.255 46.6205C173.996 48.8663 172.935 51.2391 172.081 53.7129L166.077 52.9654C164.465 52.765 162.964 53.8497 162.722 55.3903L161.214 65.0461C160.972 66.5932 162.087 68.0117 163.703 68.212L169.725 68.9612C169.797 71.5669 170.095 74.1319 170.631 76.6268L164.98 78.8628C163.456 79.4654 162.708 81.1282 163.309 82.5776L167.073 91.6569C167.676 93.1112 169.404 93.8001 170.931 93.1926L176.585 90.9468C178.006 93.1421 179.627 95.212 181.427 97.1354L177.661 101.778C176.642 103.036 176.859 104.834 178.15 105.794L186.227 111.807C187.519 112.77 189.394 112.527 190.412 111.266L194.134 106.654C196.51 107.856 199.028 108.856 201.651 109.654L200.804 115.411C200.572 116.988 201.705 118.431 203.337 118.632L213.533 119.901C215.163 120.105 216.669 118.989 216.896 117.413L217.72 111.7C220.493 111.587 223.217 111.247 225.867 110.68L228.103 115.958C228.724 117.424 230.462 118.116 231.984 117.504L241.494 113.68C243.013 113.069 243.738 111.389 243.114 109.926L240.876 104.685C243.198 103.264 245.384 101.648 247.412 99.8632L252.059 103.293C253.358 104.252 255.22 104.01 256.218 102.756L262.446 94.9205C263.439 93.6698 263.194 91.8832 261.896 90.9289L257.291 87.5415C258.547 85.2305 259.589 82.791 260.416 80.252L266.174 80.9686C267.791 81.1705 269.272 80.0745 269.481 78.5241L270.789 68.8439C270.998 67.2984 269.858 65.8848 268.247 65.6845L262.506 64.9695C262.387 62.3313 262.037 59.7418 261.447 57.2273L266.773 55.1118C268.271 54.5174 268.98 52.8758 268.355 51.4459L264.465 42.5214C263.844 41.0964 262.13 40.4221 260.635 41.0133L255.28 43.1321C253.821 40.9579 252.169 38.9092 250.338 37.0152L253.876 32.6311C254.861 31.4113 254.621 29.6654 253.339 28.7306L245.339 22.8971C244.061 21.9656 242.227 22.1952 241.24 23.4117L237.678 27.8007C235.315 26.6379 232.822 25.6706 230.22 24.9035L231.015 19.3908C231.233 17.8746 230.114 16.4838 228.516 16.2851L218.521 15.0409C216.927 14.8422 215.451 15.9089 215.228 17.4251ZM179.991 62.4208C182.879 43.3438 201.327 29.97 221.211 32.4454C241.096 34.9208 255.062 52.3302 252.392 71.4333C249.705 90.652 231.219 104.29 211.117 101.787C191.013 99.2851 177.084 81.6119 179.991 62.4208Z" fill="#D8DEE8"/>
<path d="M205.665 71.2167L161.949 416.072C161.294 421.243 165.048 425.878 170.309 426.373L352.392 445.346C363.545 446.004 369.652 440.595 370.342 435.097L416.238 68.4579C416.923 62.9908 411.451 58.0383 400.249 58.0383L216.511 61.7107C211.19 61.7971 206.317 66.0737 205.665 71.2167Z" fill="url(#paint2_linear_9_283)"/>
<path d="M197.469 70.6241L153.514 417.204C152.855 422.401 156.623 427.061 161.901 427.559L350.669 445.397C356.587 445.955 362.011 441.892 362.703 436.366L408.856 67.8327C409.545 62.3363 405.198 57.9196 399.215 58.0157L208.354 61.0725C203.017 61.1556 198.125 65.455 197.469 70.6241Z" fill="url(#paint3_linear_9_283)"/>
<path d="M201.052 89.74L160.311 411.089C159.695 415.944 163.224 420.289 168.164 420.745L345.694 437.123C351.195 437.631 356.237 433.838 356.882 428.694L399.535 88.2547C400.177 83.1378 396.141 78.9963 390.583 79.0533L211.231 80.8659C206.239 80.9148 201.665 84.9096 201.052 89.74Z" fill="#D8DEE8"/>
<path d="M296.253 70.3845C296.02 72.2297 297.415 73.7068 299.371 73.6824C301.329 73.6596 303.106 72.1418 303.34 70.2934C303.573 68.4449 302.173 66.9678 300.215 66.9955C298.257 67.0232 296.485 68.541 296.253 70.3845Z" fill="url(#paint4_linear_9_283)"/>
<path d="M231.745 305.451C268.089 241.678 322.383 222.588 338.729 156.862C347.564 121.335 341.545 87.3301 331.405 59.1005L399.217 58.0142C405.201 57.9181 409.547 62.3365 408.859 67.8312L362.706 436.365C362.014 441.892 356.59 445.955 350.672 445.395L202.282 431.373C201.182 374.23 215.543 333.877 231.745 305.451Z" fill="white"/>
<path d="M18.2525 107.197C18.2525 73.3099 49.3985 45.8442 86.7752 45.8474C123.047 45.8507 151.672 71.8719 151.672 103.966C151.672 136.06 123.047 163.467 86.7752 165.228C49.3968 167.042 18.2525 141.084 18.2525 107.197Z" fill="url(#paint5_linear_9_283)"/>
<path d="M22.2815 104.495C22.2815 70.6078 52.5267 43.142 88.8206 43.1453C124.042 43.1485 151.84 69.1698 151.84 101.264C151.84 133.358 124.042 160.765 88.8206 162.526C52.525 164.34 22.2815 138.381 22.2815 104.495Z" fill="url(#paint6_linear_9_283)"/>
<g opacity="0.5">
<path opacity="0.5" d="M32.6357 104.236C32.6357 75.7653 58.0454 52.6885 88.5394 52.6934C118.131 52.6966 141.487 74.5585 141.487 101.523C141.487 128.487 118.133 151.513 88.5394 152.992C58.0454 154.516 32.6357 132.707 32.6357 104.236Z" fill="white"/>
</g>
<path opacity="0.5" d="M86.4408 57.0677C116.032 57.0709 139.388 78.9328 139.388 105.897C139.388 112.309 138.055 118.492 135.644 124.222C139.378 117.323 141.488 109.602 141.488 101.523C141.488 74.5585 118.134 52.6966 88.5411 52.6934C65.0224 52.6917 44.5409 66.4238 36.3953 85.7647C45.6185 68.7608 64.7376 57.0661 86.4408 57.0677Z" fill="white"/>
<path d="M63.2558 97.2677V122.116C63.2558 129.3 69.6237 134.967 77.4553 134.774L96.8746 134.293C104.612 134.101 110.865 128.184 110.865 121.076V96.4893L63.2558 97.2677ZM81.1394 122.957L84.748 112.578C83.2019 111.821 82.1552 110.329 82.1552 108.591C82.1552 106.041 84.41 103.932 87.1864 103.883C89.9593 103.832 92.2055 105.855 92.2055 108.401C92.2055 110.135 91.1622 111.664 89.6213 112.482L93.2162 122.69L81.1394 122.957Z" fill="white"/>
<path d="M105.344 94.3347C103.284 94.3673 101.612 92.8543 101.612 90.9538C101.612 83.6497 95.1517 77.7868 87.1846 77.8845C79.19 77.9822 72.6643 84.0421 72.6643 91.3919C72.6643 93.3038 70.9707 94.8803 68.8789 94.9145C66.7855 94.947 65.0867 93.4227 65.0867 91.5075C65.0867 80.3209 75.0272 71.1129 87.1863 70.9843C99.2803 70.8556 109.07 79.7639 109.07 90.843C109.07 92.7387 107.404 94.3021 105.344 94.3347Z" fill="white"/>
<path d="M150.323 236.064C150.323 236.064 149.001 231.364 149.938 230.162C150.873 228.96 156.596 224.156 156.047 225.722C155.496 227.289 154.671 228.333 154.671 228.333C154.671 228.333 157.753 229.691 155.771 231.727C153.79 233.764 153.128 234.233 153.018 236.062C152.91 237.891 151.644 238.518 150.323 236.064Z" fill="url(#paint7_linear_9_283)"/>
<path d="M95.3522 438.946C95.3522 438.946 94.6521 443.011 94.7413 444.457C94.8306 445.903 111.746 446.642 111.916 445.559C112.086 444.476 109.121 442.752 107.033 442.144C104.944 441.535 98.8321 439.913 98.8321 439.913L95.3522 438.946Z" fill="url(#paint8_linear_9_283)"/>
<path d="M99.4577 434.894L98.9188 439.949C98.9188 439.949 96.9541 441.182 95.2227 440.231L94.3562 434.729L99.4577 434.894Z" fill="url(#paint9_linear_9_283)"/>
<path d="M65.1708 445.535C65.1708 445.535 64.4707 449.6 64.5599 451.046C64.6491 452.492 81.5649 453.232 81.7348 452.149C81.9064 451.066 78.9395 449.341 76.8512 448.734C74.7629 448.126 68.6507 446.503 68.6507 446.503L65.1708 445.535Z" fill="url(#paint10_linear_9_283)"/>
<path d="M69.2776 441.483L68.7388 446.538C68.7388 446.538 66.7741 447.771 65.0427 446.82L64.1761 441.319L69.2776 441.483Z" fill="url(#paint11_linear_9_283)"/>
<path d="M96.389 302.938C98.3434 306.7 100.3 310.462 102.254 314.224C103.826 335.693 104.608 359.04 104.106 384.008C103.731 402.583 102.686 420.18 101.183 436.697C98.5322 436.581 95.881 436.466 93.2299 436.35C89.3965 429.129 84.8716 418.19 84.4546 404.686C84.0204 390.6 88.5197 388.729 88.2348 375.243C87.8642 357.762 80.1407 353.098 76.0259 332.071C74.4524 324.029 73.3936 313.527 74.6514 300.785C81.8978 301.503 89.1425 302.221 96.389 302.938Z" fill="url(#paint12_linear_9_283)"/>
<path opacity="0.3" d="M74.6529 300.785C78.5652 301.172 82.4776 301.56 86.3917 301.947C93.4356 313.58 95.4021 325.687 94.1649 331.043C92.4163 338.621 87.7902 341.048 88.0458 348.655C88.2981 356.182 92.9706 358.135 95.934 367.006C97.9863 373.148 97.4441 378.796 96.2772 389.841C93.9264 412.089 88.2655 418.893 93.0066 426.188C94.3536 428.261 96.7817 430.728 101.538 432.612C101.422 433.977 101.307 435.345 101.185 436.695C98.5337 436.581 95.8825 436.464 93.2314 436.35C89.398 429.129 84.873 418.19 84.4561 404.686C84.0219 390.6 88.5211 388.729 88.2363 375.243C87.8657 357.762 80.1422 353.099 76.0274 332.073C74.4538 324.031 73.3934 313.528 74.6529 300.785Z" fill="url(#paint13_linear_9_283)"/>
<path d="M85.868 309.711C82.1976 328.706 78.9562 349.036 76.4269 370.596C73.3725 396.629 71.7424 421.172 71.1023 443.957C68.1921 444.035 65.2836 444.113 62.3733 444.191C50.9074 422.663 50.2073 408.068 51.8598 398.565C52.4964 394.904 54.2278 387.724 54.6224 376.992C54.897 369.512 54.3942 363.818 53.7662 356.975C52.39 341.971 50.7187 338.696 50.4784 327.22C50.2519 316.448 50.2056 310.999 53.4453 307.818C61.9804 299.436 84.1847 308.968 85.868 309.711Z" fill="url(#paint14_linear_9_283)"/>
<path d="M148.801 235.339C150.737 235.211 152.67 235.084 154.606 234.955C159.17 252.464 155.896 269.446 145.594 275.692C129.497 285.45 99.5791 267.065 93.0963 247.045C90.2513 238.258 90.8982 225.578 96.5865 223.114C98.1652 222.43 100.616 222.324 105.923 225.151C121.773 233.597 122.19 249.56 130.248 250.912C133.828 251.514 139.614 249.347 148.801 235.339Z" fill="url(#paint15_linear_9_283)"/>
<path d="M104.481 318.075C107.27 313.684 103.767 309.45 102.971 301.133C102.069 291.705 105.895 290.135 109.679 274.513C112.196 264.122 114.611 254.147 111.728 242.47C110.346 236.875 108.002 227.383 99.7247 222.799C95.4538 220.433 89.6213 220.67 78.133 221.24C63.925 221.946 56.8227 222.297 51.5239 224.945C50.7483 225.333 34.6322 233.653 33.522 247.216C32.3929 261.02 48.231 262.875 50.3433 281.282C51.2923 289.546 49.602 302.255 48.5056 310.497C47.4537 318.412 46.7278 320.438 48.3752 322.835C52.3424 328.612 64.4861 326.965 88.7736 323.674C98.3005 322.381 102.4 321.352 104.481 318.075Z" fill="url(#paint16_linear_9_283)"/>
<path d="M67.526 278.32C66.4981 281.908 62.8054 284.587 60.2349 293.314C59.6807 295.199 55.7254 308.616 60.8544 311.919C63.8161 313.826 66.4758 310.212 73.6656 309.74C86.1233 308.923 92.0588 318.86 100.198 316.145C101.61 315.673 103.473 314.67 105.335 312.364C105.706 314.442 105.642 316.248 104.482 318.077C102.403 321.354 98.3014 322.383 88.7745 323.674C64.487 326.966 52.3433 328.612 48.376 322.835C46.7304 320.44 47.4546 318.412 48.5064 310.497C49.6029 302.254 51.2931 289.544 50.3442 281.283C48.2319 262.875 32.392 261.02 33.5228 247.216C33.8248 243.526 35.2542 240.241 37.1675 237.38C57.2595 245.096 70.7537 267.046 67.526 278.32Z" fill="url(#paint17_linear_9_283)"/>
<path d="M42.15 305.472L46.1704 307.908C46.8928 307.116 48.5642 305.52 51.1724 304.976C54.1118 304.362 57.4871 305.244 57.5643 306.133C57.6278 306.846 55.5721 307.566 55.2546 307.677C52.6893 308.576 50.7863 307.828 49.7499 308.807C49.3827 309.152 48.9262 309.797 47.8743 310.393C47.5981 310.549 47.3098 310.688 47.1571 310.745C45.4446 311.377 42.5086 308.548 42.2564 308.3L42.15 305.472Z" fill="url(#paint18_linear_9_283)"/>
<path d="M54.0258 255.432C56.9343 248.822 58.9488 238.7 54.3552 223.67C24.0894 234.989 8.6545 261.821 14.6809 283.09C19.6485 300.625 37.7243 309.165 41.7568 310.963C42.6954 308.935 43.634 306.91 44.5709 304.884C39.8984 299.946 34.6322 292.643 35.3769 284.31C36.4099 272.757 48.1384 268.814 54.0258 255.432Z" fill="url(#paint19_linear_9_283)"/>
<path d="M77.3878 207.642C77.3878 207.642 77.1493 212.666 75.5054 216.429C74.0194 219.83 66.2085 221.968 64.6246 222.727C63.0408 223.486 67.5915 225.706 72.1611 226.14C76.7306 226.577 89.7787 225.592 92.1312 223.948C94.4838 222.305 90.2402 222.429 86.9799 221.292C83.7179 220.156 81.8321 214.102 82.4087 211.355C82.9852 208.606 77.3878 207.642 77.3878 207.642Z" fill="url(#paint20_linear_9_283)"/>
<path d="M84.6153 205.82C86.9868 203.608 87.3179 203.351 87.5753 202.587C88.6118 199.52 86.1048 195.319 82.817 194.284C82.6454 194.231 80.4404 193.561 79.5996 194.468C78.8841 195.239 79.936 196.304 79.4366 197.791C78.9682 199.182 77.6984 199.286 75.3424 201.11C73.4017 202.611 72.1971 203.546 71.9191 204.86C71.3459 207.569 74.8001 211.494 77.858 211.388C78.9579 211.349 79.2582 210.816 84.6153 205.82Z" fill="url(#paint21_linear_9_283)"/>
<path d="M78.1587 211.806C78.1587 211.806 80.6795 214.514 84.518 213.619C87.9551 212.817 87.0782 205.329 84.5626 204.134C83.7235 203.735 82.1981 203.767 81.0518 204.292C80.374 204.601 80.1853 204.924 79.0682 205.409C78.0386 205.857 77.7109 205.795 77.4346 206.111C77.088 206.505 76.9387 207.355 78.0249 209.404C77.2424 208.878 76.3999 208.767 75.8834 209.116C75.801 209.171 75.5917 209.366 75.5007 209.622C75.173 210.549 76.1888 211.492 78.1587 211.806Z" fill="url(#paint22_linear_9_283)"/>
<path d="M365.624 110.419L366.511 114.965L348.248 115.005L189.763 115.362C185.686 115.372 181.937 118.57 181.378 122.507L143.545 362.481C142.982 366.453 149.495 372.516 153.548 372.813L223.859 377.941V377.86L329.033 385.517C329.035 385.517 329.036 385.517 329.038 385.517L329.292 385.618C333.783 385.947 337.903 382.854 338.486 378.659C338.486 378.658 338.486 378.677 338.488 378.676L373.918 122.461C374.495 118.305 370.14 110.408 365.624 110.419Z" fill="url(#paint23_linear_9_283)"/>
<path d="M334.903 373.666C334.323 377.863 330.205 381 325.714 380.672L149.789 367.852C145.737 367.558 142.918 364.099 143.481 360.126L177.873 117.6C178.431 113.664 182.18 110.465 186.254 110.454L363.173 109.991C367.688 109.98 370.89 113.34 370.316 117.496L334.903 373.666Z" fill="url(#paint24_linear_9_283)"/>
<path d="M337.24 240.291C336.952 242.369 334.906 243.919 332.672 243.841L177.838 238.478C175.794 238.408 174.356 236.811 174.637 234.825L177.681 213.411C177.963 211.428 179.828 210.086 181.874 210.139L336.844 214.224C339.081 214.283 340.665 215.782 340.379 217.859L337.24 240.291Z" fill="white"/>
<path d="M331.245 283.801C330.956 285.884 328.909 287.661 326.675 287.555L171.957 280.302C169.915 280.206 168.494 278.351 168.776 276.364L171.844 254.536C172.125 252.551 174.008 250.849 176.051 250.927L330.864 256.854C333.098 256.94 334.678 258.858 334.39 260.938L331.245 283.801Z" fill="white"/>
<path opacity="0.1" d="M340.391 217.773C340.024 217.66 339.629 217.599 339.209 217.587L184.235 213.504C182.191 213.449 180.324 214.794 180.047 216.773L176.997 238.187C176.99 238.242 176.985 238.294 176.98 238.35C175.408 237.93 174.398 236.516 174.634 234.822L177.684 213.408C177.962 211.43 179.829 210.083 181.872 210.14L336.846 214.223C339.044 214.284 340.621 215.737 340.391 217.773Z" fill="url(#paint25_linear_9_283)"/>
<path opacity="0.1" d="M334.423 260.456C334.051 260.316 333.649 260.231 333.224 260.215L178.415 254.287C176.371 254.208 174.485 255.914 174.207 257.899L171.134 279.728C171.117 279.868 171.105 280.003 171.105 280.143C169.533 279.661 168.534 278.057 168.771 276.364L171.844 254.534C172.122 252.549 174.007 250.844 176.052 250.922L330.861 256.85C332.929 256.935 334.428 258.571 334.423 260.456Z" fill="url(#paint26_linear_9_283)"/>
<path d="M290.097 319.068C290.553 315.784 288.106 312.758 284.628 312.567L204.536 308.203C201.219 308.022 198.156 310.673 197.705 313.872L194.4 337.515C193.949 340.719 196.25 343.784 199.565 343.999L279.616 349.197C283.092 349.423 286.294 346.637 286.752 343.347L290.097 319.068Z" fill="url(#paint27_linear_9_283)"/>
<path d="M296.145 159.773C295.09 167.331 290.999 174.153 285.182 179.171C278.914 184.583 270.657 187.876 262.07 187.718C253.527 187.561 246.335 184.019 241.717 178.487C237.458 173.388 235.372 166.594 236.417 159.162C238.591 143.702 253.557 131.205 269.981 131.242C286.56 131.276 298.338 144.049 296.145 159.773Z" fill="url(#paint28_linear_9_283)"/>
<path d="M280.175 151.183C279.228 157.954 272.642 163.381 265.492 163.299C258.37 163.218 253.384 157.702 254.326 150.979C255.27 144.258 261.789 138.836 268.913 138.867C276.069 138.898 281.122 144.411 280.175 151.183Z" fill="white"/>
<path d="M285.184 179.171C278.915 184.583 270.658 187.876 262.071 187.718C253.528 187.561 246.336 184.019 241.719 178.487C247.004 171.499 255.721 166.851 264.978 166.965C274.286 167.079 281.788 171.974 285.184 179.171Z" fill="white"/>
<path opacity="0.4" d="M370.315 117.495L334.903 373.666C334.323 377.861 329.942 380.98 325.453 380.652L219.791 372.952C214.772 368.075 210.638 362.222 207.688 355.198C206.24 351.753 205.179 348.037 204.474 344.128C202.513 333.311 203.273 321.016 206.133 308.946C208.333 299.655 211.782 290.483 216.197 282.207C219.729 275.59 223.881 269.54 228.52 264.456C231.859 260.796 235.471 257.241 239.28 253.754C243.874 249.546 248.756 245.439 253.792 241.369C265.527 231.879 278.093 222.601 289.727 212.804C316.572 190.203 338.35 164.948 333.11 128.915C332.942 127.78 331.306 119.088 329.216 110.079L362.911 109.991C367.424 109.979 370.89 113.341 370.315 117.495Z" fill="white"/>
<defs>
<linearGradient id="paint0_linear_9_283" x1="321.741" y1="328.908" x2="436" y2="3.76216" gradientUnits="userSpaceOnUse">
<stop offset="0.00359712" stop-color="#E38DDD"/>
<stop offset="1" stop-color="#9571F6"/>
</linearGradient>
<linearGradient id="paint1_linear_9_283" x1="228.96" y1="297.193" x2="472.062" y2="297.193" gradientUnits="userSpaceOnUse">
<stop stop-color="#FF9085"/>
<stop offset="1" stop-color="#FB6FBB"/>
</linearGradient>
<linearGradient id="paint2_linear_9_283" x1="291.346" y1="242.801" x2="363.011" y2="251.038" gradientUnits="userSpaceOnUse">
<stop stop-color="#444B8C"/>
<stop offset="0.9964" stop-color="#26264F"/>
</linearGradient>
<linearGradient id="paint3_linear_9_283" x1="228.121" y1="71.1326" x2="389.217" y2="648.993" gradientUnits="userSpaceOnUse">
<stop stop-color="#444B8C"/>
<stop offset="0.9964" stop-color="#26264F"/>
</linearGradient>
<linearGradient id="paint4_linear_9_283" x1="294.611" y1="57.0115" x2="484.712" y2="599.493" gradientUnits="userSpaceOnUse">
<stop stop-color="#FFC444"/>
<stop offset="0.9964" stop-color="#F36F56"/>
</linearGradient>
<linearGradient id="paint5_linear_9_283" x1="-1527.29" y1="1548.42" x2="-1391.69" y2="1413.69" gradientUnits="userSpaceOnUse">
<stop stop-color="#311944"/>
<stop offset="1" stop-color="#893976"/>
</linearGradient>
<linearGradient id="paint6_linear_9_283" x1="43.7091" y1="140.175" x2="152.592" y2="36.0655" gradientUnits="userSpaceOnUse">
<stop stop-color="#FF9085"/>
<stop offset="1" stop-color="#FB6FBB"/>
</linearGradient>
<linearGradient id="paint7_linear_9_283" x1="159.516" y1="225.775" x2="138.068" y2="248.777" gradientUnits="userSpaceOnUse">
<stop stop-color="#FFC444"/>
<stop offset="0.9964" stop-color="#F36F56"/>
</linearGradient>
<linearGradient id="paint8_linear_9_283" x1="103.372" y1="433.618" x2="103.544" y2="385.076" gradientUnits="userSpaceOnUse">
<stop stop-color="#AA80F9"/>
<stop offset="0.9964" stop-color="#6165D7"/>
</linearGradient>
<linearGradient id="paint9_linear_9_283" x1="98.3061" y1="449.217" x2="96.1106" y2="424.113" gradientUnits="userSpaceOnUse">
<stop stop-color="#FFC444"/>
<stop offset="0.9964" stop-color="#F36F56"/>
</linearGradient>
<linearGradient id="paint10_linear_9_283" x1="73.2183" y1="433.512" x2="73.3902" y2="384.969" gradientUnits="userSpaceOnUse">
<stop stop-color="#AA80F9"/>
<stop offset="0.9964" stop-color="#6165D7"/>
</linearGradient>
<linearGradient id="paint11_linear_9_283" x1="67.7454" y1="451.889" x2="65.5499" y2="426.785" gradientUnits="userSpaceOnUse">
<stop stop-color="#FFC444"/>
<stop offset="0.9964" stop-color="#F36F56"/>
</linearGradient>
<linearGradient id="paint12_linear_9_283" x1="97.3812" y1="322.829" x2="80.4325" y2="414.128" gradientUnits="userSpaceOnUse">
<stop stop-color="#311944"/>
<stop offset="1" stop-color="#893976"/>
</linearGradient>
<linearGradient id="paint13_linear_9_283" x1="106.737" y1="367.31" x2="78.5909" y2="369.687" gradientUnits="userSpaceOnUse">
<stop stop-color="#311944"/>
<stop offset="1" stop-color="#893976"/>
</linearGradient>
<linearGradient id="paint14_linear_9_283" x1="91.1579" y1="372.338" x2="48.4298" y2="375.946" gradientUnits="userSpaceOnUse">
<stop stop-color="#311944"/>
<stop offset="1" stop-color="#893976"/>
</linearGradient>
<linearGradient id="paint15_linear_9_283" x1="124.932" y1="238.397" x2="96.37" y2="431.669" gradientUnits="userSpaceOnUse">
<stop stop-color="#AA80F9"/>
<stop offset="0.9964" stop-color="#6165D7"/>
</linearGradient>
<linearGradient id="paint16_linear_9_283" x1="57.6508" y1="450.043" x2="43.8613" y2="644.75" gradientUnits="userSpaceOnUse">
<stop stop-color="#AA80F9"/>
<stop offset="0.9964" stop-color="#6165D7"/>
</linearGradient>
<linearGradient id="paint17_linear_9_283" x1="5.63136" y1="383.692" x2="83.6642" y2="242.857" gradientUnits="userSpaceOnUse">
<stop stop-color="#AA80F9"/>
<stop offset="0.9964" stop-color="#6165D7"/>
</linearGradient>
<linearGradient id="paint18_linear_9_283" x1="35.567" y1="288.772" x2="52.1936" y2="312.437" gradientUnits="userSpaceOnUse">
<stop stop-color="#FFC444"/>
<stop offset="0.9964" stop-color="#F36F56"/>
</linearGradient>
<linearGradient id="paint19_linear_9_283" x1="20.2686" y1="447.396" x2="6.4791" y2="642.103" gradientUnits="userSpaceOnUse">
<stop stop-color="#AA80F9"/>
<stop offset="0.9964" stop-color="#6165D7"/>
</linearGradient>
<linearGradient id="paint20_linear_9_283" x1="86.1434" y1="231.872" x2="70.0736" y2="210.805" gradientUnits="userSpaceOnUse">
<stop stop-color="#FFC444"/>
<stop offset="0.9964" stop-color="#F36F56"/>
</linearGradient>
<linearGradient id="paint21_linear_9_283" x1="73.1062" y1="224.436" x2="81.361" y2="195.823" gradientUnits="userSpaceOnUse">
<stop stop-color="#444B8C"/>
<stop offset="0.9964" stop-color="#3E4177"/>
</linearGradient>
<linearGradient id="paint22_linear_9_283" x1="96.2818" y1="214.535" x2="71.1784" y2="202.762" gradientUnits="userSpaceOnUse">
<stop stop-color="#FFC444"/>
<stop offset="0.9964" stop-color="#F36F56"/>
</linearGradient>
<linearGradient id="paint23_linear_9_283" x1="143.511" y1="248.032" x2="373.971" y2="248.032" gradientUnits="userSpaceOnUse">
<stop stop-color="#311944"/>
<stop offset="1" stop-color="#893976"/>
</linearGradient>
<linearGradient id="paint24_linear_9_283" x1="283.623" y1="678.224" x2="258.863" y2="226.325" gradientUnits="userSpaceOnUse">
<stop offset="0.003597" stop-color="#F36F56"/>
<stop offset="1" stop-color="#FFC444"/>
</linearGradient>
<linearGradient id="paint25_linear_9_283" x1="174.6" y1="224.245" x2="340.413" y2="224.245" gradientUnits="userSpaceOnUse">
<stop offset="0.003597" stop-color="#F36F56"/>
<stop offset="1" stop-color="#FFC444"/>
</linearGradient>
<linearGradient id="paint26_linear_9_283" x1="168.738" y1="265.532" x2="334.423" y2="265.532" gradientUnits="userSpaceOnUse">
<stop offset="0.003597" stop-color="#F36F56"/>
<stop offset="1" stop-color="#FFC444"/>
</linearGradient>
<linearGradient id="paint27_linear_9_283" x1="250.176" y1="280.776" x2="216.733" y2="504.23" gradientUnits="userSpaceOnUse">
<stop offset="0.003597" stop-color="#F36F56"/>
<stop offset="1" stop-color="#FFC444"/>
</linearGradient>
<linearGradient id="paint28_linear_9_283" x1="262.36" y1="48.6807" x2="269.485" y2="272.256" gradientUnits="userSpaceOnUse">
<stop offset="0.003597" stop-color="#F36F56"/>
<stop offset="1" stop-color="#FFC444"/>
</linearGradient>
</defs>
</svg>
