<svg width="119" height="20" viewBox="0 0 119 20" fill="none" xmlns="http://www.w3.org/2000/svg">
<path d="M5.49414 14.0195C5.49414 14.3776 5.62842 14.7113 5.89697 15.0205C6.17367 15.3298 6.56022 15.6024 7.05664 15.8384C7.5612 16.0662 8.16341 16.2493 8.86328 16.3877C9.57129 16.5179 10.3607 16.583 11.2314 16.583C12.1185 16.583 12.916 16.5138 13.624 16.3755C14.332 16.229 14.9302 16.0378 15.4185 15.8018C15.9149 15.5658 16.2933 15.2931 16.5537 14.9839C16.8141 14.6746 16.9443 14.3532 16.9443 14.0195V0.689453C17.6442 0.722005 18.3034 0.770833 18.9219 0.835938C19.5404 0.892904 20.0897 0.953939 20.5698 1.01904C21.1232 1.09229 21.64 1.1696 22.1201 1.25098V4.37598C21.9248 4.31087 21.644 4.23356 21.2778 4.14404C20.9116 4.04639 20.5088 3.96094 20.0693 3.8877V14.9229C20.0693 15.5658 19.8333 16.1517 19.3613 16.6807C18.8975 17.2096 18.2627 17.6654 17.457 18.0479C16.6595 18.4222 15.7236 18.7152 14.6494 18.9268C13.5752 19.1383 12.4359 19.2441 11.2314 19.2441C10.0189 19.2441 8.87549 19.1383 7.80127 18.9268C6.72705 18.7152 5.78711 18.4222 4.98145 18.0479C4.17578 17.6654 3.53695 17.2096 3.06494 16.6807C2.60107 16.1517 2.36914 15.5658 2.36914 14.9229V3.8877C1.92969 3.97721 1.52279 4.06673 1.14844 4.15625C0.782227 4.23763 0.505534 4.31087 0.318359 4.37598V1.25098C0.782227 1.1696 1.29492 1.09229 1.85645 1.01904C2.32845 0.953939 2.87777 0.892904 3.50439 0.835938C4.13102 0.770833 4.79427 0.722005 5.49414 0.689453V14.0195ZM25.9775 8.91699C25.945 8.65658 25.8677 8.43685 25.7456 8.25781C25.6317 8.07878 25.5055 7.93229 25.3672 7.81836C25.2126 7.68001 25.0417 7.56608 24.8545 7.47656L26.2217 5.08398C26.5228 5.18978 26.8239 5.33219 27.125 5.51123C27.3773 5.66585 27.6418 5.86523 27.9185 6.10938C28.2033 6.34538 28.4515 6.63835 28.6631 6.98828C29.07 6.72786 29.485 6.48372 29.9082 6.25586C30.3395 6.01986 30.7871 5.81641 31.251 5.64551C31.723 5.47461 32.2153 5.34033 32.728 5.24268C33.2489 5.13688 33.8063 5.08398 34.4004 5.08398C35.6536 5.08398 36.7279 5.18978 37.623 5.40137C38.5264 5.60482 39.2629 5.91406 39.8325 6.3291C40.4103 6.736 40.8335 7.24463 41.1021 7.85498C41.3706 8.46533 41.5049 9.17741 41.5049 9.99121V19H38.3066V10.748C38.3066 10.2923 38.2456 9.90169 38.1235 9.57617C38.0015 9.24251 37.8346 8.96175 37.623 8.73389C37.4196 8.49788 37.1795 8.30664 36.9028 8.16016C36.6261 8.01367 36.3372 7.90381 36.0361 7.83057C35.7432 7.74919 35.4421 7.69629 35.1328 7.67188C34.8236 7.63932 34.5306 7.62305 34.2539 7.62305C33.7331 7.62305 33.2367 7.65967 32.7646 7.73291C32.2926 7.80615 31.8451 7.90788 31.4219 8.03809C30.9987 8.16016 30.5999 8.30664 30.2256 8.47754C29.8512 8.64844 29.5013 8.82747 29.1758 9.01465V19H25.9775V8.91699ZM48.8535 19H45.7529V5.08398H48.8535V19ZM47.3154 0.25C47.9176 0.25 48.3937 0.351725 48.7437 0.555176C49.0936 0.750488 49.2686 1.0638 49.2686 1.49512V2.10547C49.2686 2.49609 49.0936 2.77686 48.7437 2.94775C48.3937 3.11865 47.9176 3.2041 47.3154 3.2041C46.7376 3.2041 46.2697 3.11865 45.9116 2.94775C45.5617 2.77686 45.3867 2.49609 45.3867 2.10547V1.49512C45.3867 1.0638 45.5617 0.750488 45.9116 0.555176C46.2697 0.351725 46.7376 0.25 47.3154 0.25ZM61.5732 0.0791016C62.8021 0.0791016 63.9658 0.188965 65.0645 0.408691C66.1631 0.62028 67.1193 0.921387 67.9331 1.31201C68.755 1.70264 69.4061 2.17057 69.8862 2.71582C70.3664 3.25293 70.6064 3.84701 70.6064 4.49805V6.64648H67.3838V5.4502C67.3838 5.10026 67.2495 4.7666 66.981 4.44922C66.7124 4.1237 66.3258 3.84294 65.8213 3.60693C65.3249 3.36279 64.7186 3.17155 64.0024 3.0332C63.2863 2.88672 62.4766 2.81348 61.5732 2.81348C60.7025 2.81348 59.909 2.88265 59.1929 3.021C58.4767 3.1512 57.8623 3.33431 57.3496 3.57031C56.8369 3.80632 56.4382 4.08708 56.1533 4.4126C55.8766 4.72998 55.7383 5.07585 55.7383 5.4502V14.0684C55.7383 14.4264 55.8766 14.7642 56.1533 15.0815C56.4382 15.3989 56.8369 15.6756 57.3496 15.9116C57.8623 16.1395 58.4767 16.3226 59.1929 16.4609C59.909 16.5911 60.7025 16.6562 61.5732 16.6562C62.4766 16.6562 63.2863 16.5871 64.0024 16.4487C64.7186 16.3022 65.3249 16.111 65.8213 15.875C66.3258 15.639 66.7124 15.3664 66.981 15.0571C67.2495 14.7397 67.3838 14.4102 67.3838 14.0684V12.8477H70.6064V14.9961C70.6064 15.4274 70.4966 15.8384 70.2769 16.229C70.0571 16.6115 69.7479 16.9655 69.3491 17.291C68.9585 17.6165 68.4865 17.9095 67.9331 18.1699C67.3879 18.4222 66.7775 18.6419 66.1021 18.8291C65.4347 19.0081 64.7186 19.1465 63.9536 19.2441C63.1886 19.3418 62.3952 19.3906 61.5732 19.3906C60.7513 19.3906 59.9578 19.3418 59.1929 19.2441C58.4279 19.1465 57.7077 19.0081 57.0322 18.8291C56.3649 18.6419 55.7546 18.4222 55.2012 18.1699C54.6559 17.9095 54.1839 17.6165 53.7852 17.291C53.3945 16.9655 53.0894 16.6115 52.8696 16.229C52.6499 15.8384 52.54 15.4274 52.54 14.9961V4.49805C52.54 4.06673 52.6499 3.65576 52.8696 3.26514C53.0894 2.87451 53.3945 2.51644 53.7852 2.19092C54.1839 1.8654 54.6559 1.57243 55.2012 1.31201C55.7546 1.0516 56.3649 0.831868 57.0322 0.652832C57.7077 0.465658 58.4279 0.323242 59.1929 0.225586C59.9578 0.12793 60.7513 0.0791016 61.5732 0.0791016ZM87.5986 14.0195C87.3952 13.8405 87.1429 13.6655 86.8418 13.4946C86.5407 13.3237 86.1704 13.1732 85.731 13.043C85.2915 12.9046 84.7666 12.7948 84.1562 12.7134C83.554 12.6239 82.846 12.5791 82.0322 12.5791C81.3079 12.5791 80.6203 12.5954 79.9692 12.6279C79.3263 12.6523 78.7607 12.7337 78.2725 12.8721C77.7842 13.0023 77.3976 13.2139 77.1128 13.5068C76.828 13.7998 76.6855 14.2067 76.6855 14.7275V16.29C77.4017 16.404 78.1911 16.4976 79.0537 16.5708C79.9163 16.644 80.8766 16.6807 81.9346 16.6807C82.7809 16.6807 83.6802 16.6522 84.6323 16.5952C85.5926 16.5301 86.5814 16.404 87.5986 16.2168V14.0195ZM82.1055 5.08398C82.5124 5.08398 83.0047 5.10433 83.5825 5.14502C84.1603 5.18571 84.7625 5.25895 85.3892 5.36475C86.0158 5.4624 86.6343 5.60075 87.2446 5.77979C87.8631 5.95068 88.4165 6.17855 88.9048 6.46338C89.4012 6.74007 89.8 7.07373 90.1011 7.46436C90.4022 7.85498 90.5527 8.31478 90.5527 8.84375V18.292C89.8691 18.4303 89.096 18.5483 88.2334 18.646C87.4928 18.7355 86.6099 18.8169 85.5845 18.8901C84.5591 18.9634 83.4157 19 82.1543 19C80.901 19 79.5664 18.9471 78.1504 18.8413C76.7425 18.7355 75.2695 18.5524 73.7314 18.292V13.8975C73.7314 13.4255 73.8413 13.0145 74.061 12.6646C74.2889 12.3065 74.5981 12.0013 74.9888 11.749C75.3794 11.4967 75.8392 11.2892 76.3682 11.1265C76.8971 10.9637 77.4668 10.8335 78.0771 10.7358C78.6875 10.6382 79.3223 10.5731 79.9814 10.5405C80.6406 10.4998 81.2998 10.4795 81.959 10.4795C82.96 10.4795 83.8104 10.5446 84.5103 10.6748C85.2183 10.7969 85.8042 10.9312 86.2681 11.0776C86.8052 11.2567 87.2487 11.4561 87.5986 11.6758V9.69824C87.5986 9.36458 87.5173 9.07975 87.3545 8.84375C87.1917 8.59961 86.972 8.39616 86.6953 8.2334C86.4186 8.0625 86.1012 7.92822 85.7432 7.83057C85.3851 7.72477 85.0107 7.64339 84.6201 7.58643C84.2295 7.52946 83.8307 7.49284 83.4238 7.47656C83.0251 7.46029 82.6507 7.45215 82.3008 7.45215C81.9346 7.45215 81.5439 7.46436 81.1289 7.48877C80.7139 7.50505 80.2988 7.54167 79.8838 7.59863C79.4769 7.6556 79.0822 7.73698 78.6997 7.84277C78.3254 7.94043 77.9917 8.07471 77.6987 8.24561C77.4058 8.4165 77.1698 8.62402 76.9907 8.86816C76.8198 9.10417 76.7344 9.389 76.7344 9.72266L73.707 8.94141C73.707 8.39616 73.8413 7.92415 74.1099 7.52539C74.3784 7.11849 74.7324 6.77262 75.1719 6.48779C75.6195 6.20296 76.1322 5.97103 76.71 5.79199C77.2878 5.60482 77.8859 5.4624 78.5044 5.36475C79.131 5.25895 79.7536 5.18571 80.3721 5.14502C80.9906 5.10433 81.5684 5.08398 82.1055 5.08398ZM97.584 19H94.8008V0.665039H97.584V19ZM110.108 4.86426C110.784 4.86426 111.463 4.89681 112.147 4.96191C112.831 5.02702 113.486 5.13281 114.112 5.2793C114.739 5.42578 115.325 5.60889 115.87 5.82861C116.415 6.04834 116.887 6.31283 117.286 6.62207C117.693 6.93132 118.01 7.28939 118.238 7.69629C118.466 8.09505 118.58 8.54264 118.58 9.03906L115.455 9.50293C115.455 9.15299 115.305 8.83968 115.003 8.56299C114.702 8.27816 114.304 8.04215 113.807 7.85498C113.311 7.65967 112.741 7.51318 112.098 7.41553C111.455 7.30973 110.792 7.25684 110.108 7.25684C109.457 7.25684 108.814 7.30566 108.18 7.40332C107.545 7.49284 106.975 7.63118 106.471 7.81836C105.974 8.00553 105.567 8.24154 105.25 8.52637C104.941 8.80306 104.786 9.12858 104.786 9.50293V14.5811C104.786 14.9554 104.941 15.2809 105.25 15.5576C105.567 15.8262 105.974 16.054 106.471 16.2412C106.975 16.4202 107.545 16.5545 108.18 16.644C108.814 16.7336 109.457 16.7783 110.108 16.7783C110.792 16.7783 111.455 16.7295 112.098 16.6318C112.741 16.5342 113.311 16.3958 113.807 16.2168C114.304 16.0296 114.702 15.8018 115.003 15.5332C115.305 15.2565 115.455 14.9391 115.455 14.5811L118.58 15.3623C118.58 15.8018 118.466 16.2046 118.238 16.5708C118.01 16.937 117.693 17.2666 117.286 17.5596C116.887 17.8444 116.415 18.0926 115.87 18.3042C115.325 18.5158 114.739 18.6908 114.112 18.8291C113.486 18.9674 112.831 19.0692 112.147 19.1343C111.463 19.2075 110.784 19.2441 110.108 19.2441C109.433 19.2441 108.753 19.2075 108.07 19.1343C107.394 19.0692 106.743 18.9674 106.117 18.8291C105.49 18.6908 104.904 18.5158 104.359 18.3042C103.822 18.0926 103.35 17.8444 102.943 17.5596C102.544 17.2666 102.231 16.9411 102.003 16.583C101.775 16.2168 101.661 15.8099 101.661 15.3623V9.03906C101.661 8.54264 101.775 8.09505 102.003 7.69629C102.231 7.28939 102.544 6.93132 102.943 6.62207C103.35 6.31283 103.822 6.04834 104.359 5.82861C104.904 5.60889 105.49 5.42578 106.117 5.2793C106.743 5.13281 107.394 5.02702 108.07 4.96191C108.753 4.89681 109.433 4.86426 110.108 4.86426Z" fill="white"/>
</svg>
