<svg width="593" height="672" viewBox="0 0 593 672" fill="none" xmlns="http://www.w3.org/2000/svg">
<mask id="mask0_9_696" style="mask-type:alpha" maskUnits="userSpaceOnUse" x="0" y="0" width="593" height="672">
<rect width="592.804" height="672" fill="white"/>
</mask>
<g mask="url(#mask0_9_696)">
<g clip-path="url(#clip0_9_696)">
<path d="M304.03 149.002C254.539 159.457 261.908 217.264 176.708 249.703C85.3891 284.471 140.7 415.645 244.598 423.106C348.012 430.536 395.703 383.909 406.32 295.3C414.308 228.658 377.577 133.464 304.03 149.002Z" fill="#ECF2FA"/>
<path d="M187.713 237.818C209.908 230.19 243.55 194.543 231.384 154.626C219.218 114.709 122.186 260.333 187.713 237.818Z" fill="#ECF2FA"/>
<path d="M380.721 423.833H282.576C279.658 423.833 277.624 421.464 278.034 418.546L287.455 346.784C287.865 343.864 290.564 341.497 293.483 341.497H391.628C394.546 341.497 396.582 343.864 396.171 346.784L386.75 418.546C386.34 421.464 383.641 423.833 380.721 423.833Z" fill="#101C3A"/>
<path d="M377.473 418.846H279.328C276.41 418.846 274.376 416.48 274.785 413.561L284.206 346.784C284.616 343.864 287.316 341.497 290.236 341.497H388.38C391.298 341.497 393.333 343.864 392.924 346.784L383.339 414.324C382.936 417.242 380.392 418.846 377.473 418.846Z" fill="#390D9F"/>
<path d="M374.034 416.012H283.564C280.874 416.012 278.999 413.831 279.381 411.14L288.121 349.205C288.499 346.513 290.988 344.332 293.679 344.332H384.147C386.839 344.332 388.714 346.513 388.331 349.205L379.59 411.14C379.212 413.831 376.724 416.012 374.034 416.012Z" fill="#CFE0FA"/>
<path d="M333.685 368.393L332.502 362.999C332.382 362.445 332.074 361.949 331.629 361.596C331.185 361.243 330.632 361.056 330.064 361.065H298.184C297.46 361.076 296.765 361.356 296.236 361.851C295.706 362.346 295.38 363.02 295.321 363.742L294.861 370.327L294.6 374.039L291.449 419.096C291.42 419.439 291.462 419.785 291.574 420.111C291.687 420.436 291.866 420.735 292.101 420.987C292.335 421.24 292.62 421.44 292.937 421.575C293.254 421.711 293.596 421.778 293.94 421.773H368.114C368.839 421.763 369.534 421.483 370.063 420.988C370.593 420.493 370.919 419.818 370.978 419.096L374.202 373.005C374.232 372.661 374.19 372.316 374.077 371.99C373.965 371.664 373.786 371.365 373.551 371.113C373.316 370.861 373.031 370.661 372.714 370.525C372.398 370.39 372.056 370.323 371.711 370.327H336.121C335.554 370.337 335.001 370.149 334.557 369.796C334.113 369.443 333.805 368.947 333.685 368.393Z" fill="#101C3A"/>
<path d="M359.4 339.896L299.254 339.969L299.343 413.07L359.489 412.996L359.4 339.896Z" fill="white"/>
<path d="M332.861 354.118L308.162 354.148L308.164 356.017L332.863 355.987L332.861 354.118Z" fill="#101C3A"/>
<path d="M320.516 359.45L308.167 359.465L308.169 361.335L320.518 361.319L320.516 359.45Z" fill="#101C3A"/>
<path d="M336.364 359.461L324.014 359.476L324.017 361.347L336.366 361.332L336.364 359.461Z" fill="#101C3A"/>
<path d="M352.461 359.411L340.111 359.426L340.114 361.296L352.463 361.28L352.461 359.411Z" fill="#101C3A"/>
<path d="M352.451 354.097L335.252 354.118L335.254 355.987L352.454 355.966L352.451 354.097Z" fill="#101C3A"/>
<path d="M351.878 365.048H327.179V366.917H351.878V365.048Z" fill="#101C3A"/>
<path d="M325.369 364.588L308.17 364.609L308.172 366.479L325.372 366.458L325.369 364.588Z" fill="#101C3A"/>
<path d="M332.859 369.693L308.161 369.723L308.163 371.592L332.862 371.562L332.859 369.693Z" fill="#101C3A"/>
<path d="M320.537 375.01L308.187 375.025L308.19 376.895L320.539 376.88L320.537 375.01Z" fill="#101C3A"/>
<path d="M336.422 374.99L324.072 375.005L324.075 376.874L336.424 376.859L336.422 374.99Z" fill="#101C3A"/>
<path d="M352.442 376.872L340.093 376.888L340.09 375.017L352.439 375.004L352.442 376.872Z" fill="#101C3A"/>
<path d="M352.435 371.555L335.237 371.575L335.234 369.704L352.433 369.686L352.435 371.555Z" fill="#101C3A"/>
<path d="M352.486 380.112L327.787 380.143L327.79 382.012L352.488 381.982L352.486 380.112Z" fill="#101C3A"/>
<path d="M325.388 380.147L308.189 380.168L308.191 382.037L325.391 382.016L325.388 380.147Z" fill="#101C3A"/>
<path d="M318.888 370.206L316.376 364.811C315.842 363.666 314.655 362.878 313.462 362.878H281.582C280.104 362.878 279.117 364.077 279.377 365.555L280.531 372.139L281.186 375.851L289.13 420.907C289.391 422.386 290.802 423.585 292.28 423.585H366.453C367.933 423.585 368.92 422.386 368.659 420.907L360.532 374.822C360.272 373.344 358.861 372.145 357.383 372.145H321.794C320.603 372.142 319.414 371.36 318.888 370.206Z" fill="#FC721A"/>
<path d="M255.864 413.757H244.743V415.641H255.864V413.757Z" fill="#101C3A"/>
<path d="M268.95 413.757H257.83V415.641H268.95V413.757Z" fill="#101C3A"/>
<path d="M282.037 413.757H270.916V415.641H282.037V413.757Z" fill="#101C3A"/>
<path d="M320.865 413.757H284.001V415.641H320.865V413.757Z" fill="#101C3A"/>
<path d="M334.382 413.757H323.261V415.641H334.382V413.757Z" fill="#101C3A"/>
<path d="M347.468 413.757H336.346V415.641H347.468V413.757Z" fill="#101C3A"/>
<path d="M360.553 413.757H349.433V415.641H360.553V413.757Z" fill="#101C3A"/>
<path d="M373.641 413.757H362.52V415.641H373.641V413.757Z" fill="#101C3A"/>
<path d="M377.373 423.833H244.031C240.4 423.833 237.457 423.351 237.457 419.722V415.645H383.945V419.726C383.945 423.351 381.004 423.833 377.373 423.833Z" fill="#101C3A"/>
<path d="M378.856 419.722H237.601V415.55H383.028C383.028 416.098 382.92 416.64 382.71 417.146C382.501 417.653 382.193 418.113 381.806 418.5C381.419 418.887 380.959 419.195 380.453 419.404C379.946 419.614 379.404 419.722 378.856 419.722Z" fill="#390D9F"/>
<path d="M383.127 415.958L383.474 414.419L385.437 415.081L384.417 421.043L382.693 423.276L381.16 423.653C381.014 423.682 380.866 423.698 380.717 423.702C380.49 423.702 375.889 423.702 375.889 423.702C375.889 423.702 378.918 420.371 379.181 420.371C379.443 420.371 381.805 420.22 381.805 420.22L382.526 418.095L383.024 417.454L383.127 415.958Z" fill="#101C3A"/>
<path d="M428.72 203.061V313.15C428.72 314.522 428.45 315.88 427.925 317.148C427.4 318.415 426.63 319.566 425.66 320.536C424.69 321.506 423.539 322.275 422.272 322.8C421.004 323.324 419.646 323.594 418.274 323.594H270.244C268.873 323.594 267.514 323.324 266.247 322.8C264.98 322.275 263.828 321.506 262.858 320.536C261.888 319.566 261.119 318.415 260.594 317.148C260.069 315.88 259.799 314.522 259.799 313.15V203.061C259.8 200.81 260.695 198.652 262.286 197.061C263.878 195.469 266.036 194.574 268.287 194.573H420.232C422.483 194.574 424.641 195.469 426.233 197.061C427.824 198.652 428.719 200.81 428.72 203.061Z" fill="white"/>
<path d="M418.277 324.421H270.244C267.256 324.418 264.391 323.23 262.278 321.117C260.164 319.004 258.976 316.139 258.972 313.151V203.061C258.975 200.592 259.958 198.224 261.704 196.478C263.45 194.732 265.817 193.75 268.287 193.747H420.232C422.702 193.749 425.069 194.732 426.815 196.478C428.562 198.224 429.544 200.592 429.546 203.061V313.151C429.543 316.138 428.355 319.003 426.242 321.116C424.13 323.228 421.265 324.417 418.277 324.421ZM268.287 195.401C266.256 195.404 264.31 196.212 262.874 197.648C261.438 199.084 260.631 201.031 260.628 203.061V313.151C260.631 315.7 261.645 318.145 263.448 319.948C265.25 321.751 267.695 322.765 270.244 322.768H418.277C420.827 322.765 423.272 321.751 425.075 319.948C426.879 318.145 427.893 315.701 427.896 313.151V203.061C427.894 201.03 427.086 199.083 425.65 197.647C424.214 196.211 422.267 195.404 420.236 195.401H268.287Z" fill="#CFE0FA"/>
<path d="M410.212 199.292C409.952 199.292 409.698 199.369 409.482 199.513C409.266 199.658 409.098 199.863 408.998 200.103C408.899 200.343 408.873 200.607 408.923 200.862C408.974 201.117 409.099 201.351 409.283 201.535C409.467 201.719 409.701 201.844 409.956 201.895C410.211 201.945 410.475 201.919 410.715 201.82C410.955 201.721 411.16 201.552 411.305 201.336C411.449 201.12 411.526 200.866 411.526 200.606C411.526 200.257 411.388 199.923 411.141 199.677C410.895 199.43 410.561 199.292 410.212 199.292Z" fill="#2B173F"/>
<path d="M415.757 199.292C415.497 199.291 415.243 199.368 415.027 199.513C414.81 199.657 414.642 199.862 414.542 200.102C414.442 200.342 414.416 200.606 414.467 200.861C414.517 201.116 414.642 201.351 414.826 201.535C415.01 201.719 415.244 201.844 415.499 201.895C415.754 201.945 416.018 201.92 416.258 201.82C416.499 201.721 416.704 201.552 416.848 201.336C416.993 201.12 417.07 200.866 417.07 200.606C417.07 200.433 417.036 200.263 416.97 200.103C416.905 199.944 416.808 199.799 416.686 199.677C416.564 199.555 416.419 199.458 416.26 199.392C416.101 199.326 415.93 199.292 415.757 199.292Z" fill="#425FEC"/>
<path d="M421.307 199.292C421.047 199.291 420.792 199.368 420.576 199.513C420.36 199.657 420.191 199.862 420.092 200.102C419.992 200.342 419.966 200.606 420.016 200.861C420.067 201.116 420.192 201.351 420.375 201.535C420.559 201.719 420.793 201.844 421.048 201.895C421.303 201.945 421.568 201.92 421.808 201.82C422.048 201.721 422.253 201.552 422.398 201.336C422.542 201.12 422.619 200.866 422.619 200.606C422.62 200.433 422.586 200.263 422.52 200.103C422.454 199.944 422.357 199.799 422.235 199.677C422.113 199.555 421.969 199.458 421.809 199.392C421.65 199.326 421.479 199.292 421.307 199.292Z" fill="#FC721A"/>
<path d="M428.225 208.364H300.641V210.018H428.225V208.364Z" fill="#CFE0FA"/>
<g opacity="0.3">
<path d="M357.911 260.499C356.061 258.047 355.806 254.925 352.902 253.255C350.487 251.873 349.264 250.37 348.009 249.022C350.679 247.055 354.411 243.385 356.087 240.066C357.481 237.325 357.162 235.238 355.927 236.162C353.11 238.258 344.09 243.32 341.249 246.404C341.225 246.428 341.207 246.457 341.196 246.489C338.825 248.265 334.367 257.934 334.112 260.094C333.73 263.316 340.006 265.391 338.144 273.164C338.059 273.251 327.688 296.651 324.039 303.681C322.647 305.989 321.232 308.308 319.891 310.595C318.094 309.617 316.232 308.595 314.382 307.596C313.754 305.72 300.224 317.321 299.224 315.439C299.224 315.439 276.622 300.41 259.805 293.945V313.151C259.805 314.522 260.075 315.881 260.6 317.148C261.125 318.415 261.894 319.566 262.864 320.536C263.834 321.506 264.985 322.275 266.253 322.8C267.52 323.325 268.878 323.595 270.25 323.594H348.026C349.59 304.098 350.133 278.676 350.133 278.676C349.101 271.608 353.196 271.608 355.727 269.011C358.257 266.415 359.761 262.946 357.911 260.499Z" fill="#091022"/>
</g>
<g opacity="0.3">
<path d="M396.739 240.245H287.727C283.195 240.245 279.521 243.919 279.521 248.451V289.476C279.521 294.008 283.195 297.683 287.727 297.683H396.739C401.271 297.683 404.946 294.008 404.946 289.476V248.451C404.946 243.919 401.271 240.245 396.739 240.245Z" fill="#091022"/>
</g>
<path fill-rule="evenodd" clip-rule="evenodd" d="M214.763 129.365L205 115.629L221.777 114.042L214.763 129.365Z" fill="#390D9F"/>
<path d="M213.756 126.302L203.659 112.086L221.022 110.443L213.756 126.302ZM204.27 112.369L213.691 125.624L220.46 110.843L204.27 112.369Z" fill="#101C3A"/>
<path d="M154.909 224.246L154.966 224.291L158.64 219.543L152.811 218.746L152.748 219.047C152.626 220.027 152.761 221.021 153.14 221.932C153.519 222.844 154.128 223.641 154.909 224.246Z" fill="#425FEC"/>
<path d="M156.933 157.869C156.883 158.118 156.762 158.347 156.582 158.527C156.403 158.707 156.174 158.829 155.925 158.879C155.676 158.929 155.418 158.904 155.183 158.807C154.948 158.71 154.748 158.546 154.606 158.335C154.465 158.124 154.389 157.876 154.389 157.622C154.389 157.368 154.464 157.119 154.605 156.908C154.746 156.697 154.946 156.532 155.181 156.435C155.415 156.337 155.674 156.312 155.923 156.361C156.256 156.428 156.55 156.624 156.739 156.906C156.928 157.189 156.998 157.535 156.933 157.869Z" fill="#FC721A"/>
<path d="M402.731 93.3105C402.682 93.5597 402.56 93.7888 402.381 93.9687C402.202 94.1486 401.973 94.2713 401.724 94.3212C401.475 94.3711 401.217 94.3461 400.982 94.2492C400.747 94.1523 400.546 93.9879 400.405 93.7769C400.264 93.5659 400.188 93.3177 400.188 93.0637C400.187 92.8097 400.263 92.5613 400.404 92.35C400.544 92.1387 400.745 91.974 400.98 91.8766C401.214 91.7793 401.472 91.7537 401.721 91.8031C402.055 91.8693 402.349 92.0653 402.538 92.3479C402.728 92.6305 402.797 92.9768 402.731 93.3105Z" fill="#FC721A"/>
<path d="M223.038 173.601C222.988 173.85 222.866 174.079 222.687 174.258C222.507 174.438 222.279 174.56 222.03 174.61C221.781 174.66 221.522 174.635 221.288 174.538C221.053 174.441 220.852 174.276 220.711 174.065C220.57 173.854 220.495 173.606 220.494 173.352C220.494 173.098 220.569 172.85 220.71 172.639C220.851 172.427 221.052 172.263 221.286 172.165C221.521 172.068 221.779 172.043 222.028 172.092C222.362 172.158 222.655 172.355 222.845 172.638C223.034 172.92 223.103 173.267 223.038 173.601Z" fill="#425FEC"/>
<path d="M278.994 100.334C278.896 100.832 278.651 101.289 278.293 101.648C277.934 102.007 277.477 102.252 276.979 102.351C276.482 102.45 275.966 102.399 275.497 102.206C275.028 102.012 274.627 101.683 274.345 101.261C274.062 100.84 273.912 100.344 273.911 99.8362C273.911 99.3288 274.061 98.8326 274.342 98.4104C274.624 97.9882 275.024 97.659 275.493 97.4643C275.961 97.2696 276.477 97.2181 276.975 97.3165C277.306 97.3815 277.621 97.5112 277.902 97.6982C278.182 97.8852 278.424 98.1258 278.611 98.4061C278.799 98.6865 278.929 99.0011 278.995 99.332C279.061 99.6629 279.061 100.003 278.994 100.334Z" fill="#7109B5"/>
<path d="M453.951 111.48C453.852 111.978 453.608 112.435 453.249 112.794C452.89 113.153 452.433 113.398 451.936 113.497C451.438 113.596 450.922 113.546 450.453 113.352C449.984 113.158 449.583 112.829 449.301 112.408C449.019 111.986 448.868 111.49 448.868 110.982C448.867 110.475 449.017 109.979 449.299 109.557C449.58 109.134 449.981 108.805 450.449 108.611C450.918 108.416 451.434 108.364 451.931 108.463C452.262 108.528 452.577 108.658 452.858 108.845C453.138 109.032 453.379 109.273 453.567 109.553C453.754 109.833 453.885 110.148 453.951 110.479C454.017 110.809 454.017 111.15 453.951 111.48Z" fill="#FC721A"/>
<path d="M319.464 232.523H317.335V223.307C317.338 220.709 318.372 218.219 320.209 216.382C322.046 214.545 324.537 213.512 327.134 213.509C329.167 213.507 331.117 212.698 332.554 211.261C333.992 209.823 334.801 207.874 334.803 205.841V171.534H336.931V205.841C336.927 208.438 335.894 210.928 334.058 212.764C332.221 214.6 329.731 215.634 327.134 215.637C325.101 215.639 323.151 216.448 321.713 217.886C320.275 219.324 319.466 221.273 319.464 223.307V232.523Z" fill="#101C3A"/>
<path d="M341.645 232.523H339.516V223.307C339.519 220.71 340.552 218.219 342.388 216.383C344.225 214.546 346.714 213.513 349.312 213.509C351.345 213.507 353.294 212.698 354.732 211.261C356.17 209.823 356.979 207.874 356.982 205.841V171.534H359.109V205.841C359.106 208.438 358.073 210.928 356.236 212.765C354.399 214.601 351.909 215.634 349.312 215.637C347.279 215.64 345.329 216.449 343.892 217.886C342.454 219.324 341.646 221.274 341.643 223.307L341.645 232.523Z" fill="#101C3A"/>
<path d="M317.777 226.244L319.316 226.27C319.723 226.275 320.115 226.423 320.423 226.689C320.732 226.955 320.937 227.321 321.002 227.722L322.3 235.585L314.488 235.458L316.044 227.642C316.123 227.242 316.339 226.883 316.656 226.627C316.973 226.372 317.37 226.236 317.777 226.244Z" fill="#390D9F"/>
<path d="M339.963 226.244L341.502 226.27C341.909 226.275 342.301 226.424 342.609 226.689C342.917 226.955 343.121 227.321 343.187 227.722L344.485 235.585L336.674 235.458L338.227 227.641C338.308 227.242 338.525 226.884 338.842 226.629C339.159 226.373 339.556 226.237 339.963 226.244Z" fill="#390D9F"/>
<path d="M358.688 188.345L357.149 188.32C356.742 188.313 356.351 188.164 356.043 187.898C355.735 187.633 355.529 187.267 355.463 186.866L354.164 179.003L361.977 179.13L360.422 186.947C360.344 187.347 360.127 187.706 359.81 187.962C359.493 188.217 359.095 188.353 358.688 188.345Z" fill="#390D9F"/>
<path d="M336.502 188.345L334.963 188.32C334.556 188.314 334.164 188.166 333.856 187.9C333.548 187.634 333.343 187.268 333.278 186.866L331.98 179.003L339.793 179.13L338.238 186.947C338.159 187.347 337.942 187.706 337.625 187.962C337.307 188.218 336.91 188.353 336.502 188.345Z" fill="#390D9F"/>
<path d="M387.761 230.486H278.749C274.217 230.486 270.543 234.16 270.543 238.693V279.718C270.543 284.25 274.217 287.924 278.749 287.924H387.761C392.293 287.924 395.967 284.25 395.967 279.718V238.693C395.967 234.16 392.293 230.486 387.761 230.486Z" fill="#101C3A"/>
<path d="M391.311 238.694V279.719C391.311 280.796 391.099 281.863 390.687 282.858C390.275 283.853 389.67 284.757 388.909 285.519C388.147 286.28 387.243 286.884 386.248 287.296C385.252 287.708 384.186 287.92 383.109 287.92H274.094C273.017 287.92 271.951 287.708 270.955 287.296C269.96 286.884 269.056 286.28 268.295 285.518C267.533 284.757 266.929 283.853 266.517 282.858C266.105 281.863 265.893 280.796 265.893 279.719V238.694C265.892 236.518 266.756 234.43 268.293 232.89C269.831 231.35 271.918 230.484 274.094 230.482H383.109C385.285 230.483 387.372 231.349 388.91 232.889C390.448 234.429 391.312 236.517 391.311 238.694Z" fill="#390D9F"/>
<path d="M367.329 279.308H289.875C287.947 279.281 286.107 278.496 284.753 277.123C283.399 275.75 282.64 273.899 282.64 271.971C282.64 270.042 283.399 268.191 284.753 266.818C286.107 265.445 287.947 264.66 289.875 264.633H367.329C369.257 264.66 371.097 265.445 372.451 266.818C373.805 268.191 374.564 270.042 374.564 271.971C374.564 273.899 373.805 275.75 372.451 277.123C371.097 278.496 369.257 279.281 367.329 279.308ZM289.875 266.297C288.386 266.32 286.966 266.929 285.921 267.99C284.877 269.052 284.291 270.481 284.291 271.971C284.291 273.46 284.877 274.89 285.921 275.951C286.966 277.013 288.386 277.621 289.875 277.645H367.329C368.818 277.621 370.238 277.013 371.283 275.951C372.328 274.89 372.913 273.46 372.913 271.971C372.913 270.481 372.328 269.052 371.283 267.99C370.238 266.929 368.818 266.32 367.329 266.297H289.875Z" fill="white"/>
<path d="M367.329 253.777H289.875C287.93 253.777 286.064 253.004 284.688 251.628C283.312 250.252 282.539 248.386 282.539 246.44C282.539 244.495 283.312 242.629 284.688 241.253C286.064 239.877 287.93 239.104 289.875 239.104H367.329C369.275 239.104 371.141 239.877 372.517 241.253C373.893 242.629 374.666 244.495 374.666 246.44C374.666 248.386 373.893 250.252 372.517 251.628C371.141 253.004 369.275 253.777 367.329 253.777ZM289.875 240.766C288.386 240.789 286.966 241.398 285.921 242.459C284.877 243.521 284.291 244.95 284.291 246.44C284.291 247.929 284.877 249.359 285.921 250.42C286.966 251.482 288.386 252.09 289.875 252.114H367.329C368.818 252.09 370.238 251.482 371.283 250.42C372.328 249.359 372.913 247.929 372.913 246.44C372.913 244.95 372.328 243.521 371.283 242.459C370.238 241.398 368.818 240.789 367.329 240.766H289.875Z" fill="white"/>
<path d="M299.625 274.638L298.399 273.688C298.789 273.249 299.195 272.83 299.618 272.43L299.936 272.121C299.799 272.101 299.413 272.012 298.773 271.853C298.312 271.74 298.009 271.657 297.864 271.602L298.343 270.172C299.002 270.435 299.638 270.753 300.243 271.123C300.127 270.407 300.062 269.684 300.048 268.959H301.491C301.46 269.688 301.387 270.415 301.271 271.136C301.38 271.093 301.613 270.992 301.97 270.819C302.457 270.598 302.906 270.408 303.318 270.252L303.751 271.72C303.149 271.856 302.454 271.988 301.665 272.118L302.639 273.215C302.834 273.437 302.987 273.619 303.101 273.758L301.86 274.579L300.764 272.767C300.434 273.355 300.054 273.979 299.625 274.638Z" fill="white"/>
<path d="M310.717 274.638L309.492 273.688C309.882 273.249 310.288 272.83 310.71 272.43L311.027 272.121C310.892 272.101 310.504 272.012 309.866 271.853C309.406 271.74 309.101 271.657 308.956 271.602L309.435 270.172C310.094 270.435 310.73 270.753 311.336 271.123C311.22 270.407 311.155 269.684 311.141 268.959H312.584C312.551 269.688 312.478 270.415 312.363 271.136C312.473 271.093 312.705 270.992 313.063 270.819C313.549 270.598 313.999 270.408 314.41 270.252L314.843 271.72C314.242 271.856 313.546 271.988 312.755 272.118L313.729 273.215C313.925 273.437 314.078 273.619 314.192 273.758L312.95 274.579L311.854 272.767C311.523 273.355 311.144 273.979 310.717 274.638Z" fill="white"/>
<path d="M321.81 274.638L320.585 273.688C320.97 273.249 321.376 272.83 321.803 272.43L322.12 272.121C321.985 272.101 321.596 272.012 320.966 271.853C320.506 271.74 320.202 271.657 320.056 271.602L320.535 270.172C321.194 270.435 321.83 270.753 322.436 271.123C322.321 270.407 322.256 269.684 322.241 268.959H323.684C323.652 269.688 323.578 270.415 323.463 271.136C323.572 271.093 323.805 270.987 324.163 270.819C324.649 270.598 325.099 270.408 325.51 270.252L325.943 271.72C325.343 271.856 324.645 271.988 323.857 272.118L324.831 273.215C325.023 273.437 325.177 273.618 325.294 273.758L324.05 274.579L322.955 272.767C322.619 273.355 322.237 273.979 321.81 274.638Z" fill="white"/>
<path d="M332.903 274.638L331.677 273.688C332.066 273.249 332.472 272.83 332.894 272.43L333.212 272.121C333.076 272.101 332.689 272.012 332.05 271.853C331.59 271.74 331.286 271.657 331.14 271.602L331.619 270.172C332.279 270.435 332.915 270.753 333.52 271.123C333.405 270.407 333.34 269.684 333.326 268.959H334.768C334.737 269.688 334.663 270.415 334.549 271.136C334.658 271.093 334.89 270.987 335.247 270.819C335.735 270.598 336.183 270.408 336.596 270.252L337.029 271.72C336.427 271.856 335.731 271.988 334.941 272.118L335.915 273.215C336.111 273.437 336.264 273.619 336.378 273.758L335.136 274.579L334.04 272.767C333.71 273.355 333.331 273.979 332.903 274.638Z" fill="white"/>
<path d="M343.996 274.638L342.77 273.688C343.159 273.249 343.565 272.83 343.987 272.43L344.305 272.121C344.169 272.101 343.784 272.012 343.151 271.853C342.691 271.74 342.386 271.657 342.242 271.602L342.721 270.172C343.38 270.435 344.015 270.753 344.621 271.123C344.505 270.407 344.44 269.684 344.426 268.959H345.868C345.837 269.688 345.764 270.415 345.649 271.136C345.758 271.093 345.991 270.987 346.347 270.819C346.835 270.598 347.284 270.408 347.695 270.252L348.127 271.72C347.525 271.856 346.83 271.988 346.04 272.118L347.014 273.215C347.206 273.437 347.361 273.618 347.477 273.758L346.235 274.579L345.139 272.767C344.805 273.355 344.424 273.979 343.996 274.638Z" fill="white"/>
<path d="M355.095 274.638L353.869 273.688C354.26 273.249 354.666 272.83 355.086 272.43L355.405 272.121C355.268 272.101 354.881 272.012 354.242 271.853C353.783 271.74 353.48 271.657 353.333 271.602L353.812 270.172C354.471 270.435 355.107 270.753 355.712 271.123C355.597 270.407 355.532 269.684 355.517 268.959H356.96C356.928 269.688 356.856 270.415 356.742 271.136C356.849 271.093 357.083 270.992 357.439 270.819C357.926 270.598 358.375 270.408 358.786 270.252L359.219 271.72C358.617 271.856 357.922 271.988 357.133 272.118L358.107 273.215C358.302 273.437 358.454 273.619 358.568 273.758L357.326 274.579L356.232 272.767C355.898 273.355 355.519 273.979 355.095 274.638Z" fill="white"/>
<path d="M361.513 244.538H295.314V248.279H361.513V244.538Z" fill="white"/>
<g opacity="0.3">
<path d="M349.933 260.499C348.083 258.047 347.827 254.925 344.925 253.255C342.51 251.873 341.287 250.37 340.032 249.022C342.701 247.055 346.435 243.385 348.11 240.066C349.504 237.325 349.185 235.238 347.95 236.162C345.133 238.258 336.111 243.32 333.272 246.404C333.248 246.428 333.229 246.457 333.219 246.489C330.847 248.265 326.39 257.934 326.135 260.094C325.752 263.316 332.027 265.391 330.174 273.164C330.131 273.208 326.95 280.345 323.505 287.918H341.906C342.086 282.323 342.161 278.675 342.161 278.675C341.13 271.606 345.224 271.606 347.755 269.01C350.287 266.413 351.786 262.946 349.933 260.499Z" fill="#091022"/>
</g>
<path d="M426.987 134.281C424.693 134.204 422.399 134.447 420.171 135.002C420.863 131.228 420.73 127.35 419.781 123.632C418.833 119.915 417.092 116.446 414.678 113.464C412.264 110.483 409.233 108.059 405.794 106.358C402.355 104.657 398.589 103.72 394.754 103.611C388.189 103.375 381.768 105.571 376.723 109.777C371.172 95.7555 357.742 85.6147 341.707 85.0435C320.099 84.276 301.961 101.168 301.193 122.775C301.145 124.107 301.165 125.44 301.251 126.77C297.411 124.619 293.114 123.416 288.716 123.26C273.343 122.713 260.442 134.731 259.891 150.104C259.34 165.476 271.364 178.377 286.735 178.926L427.67 183.939V183.816C434.02 183.411 439.973 180.581 444.295 175.91C448.617 171.239 450.978 165.086 450.89 158.723C450.802 152.36 448.272 146.274 443.822 141.724C439.372 137.175 433.344 134.51 426.984 134.281H426.987Z" fill="#390D9F"/>
<path d="M441.831 158.477C441.83 164.632 439.541 170.566 435.409 175.127C431.277 179.688 425.596 182.55 419.472 183.156V183.28H278.455C263.075 183.28 250.604 170.812 250.604 155.429C250.604 140.046 263.075 127.576 278.455 127.576C278.622 127.576 278.784 127.576 278.948 127.576C283.182 127.651 287.341 128.696 291.107 130.631C290.971 129.306 290.903 127.974 290.902 126.641C290.902 125.542 290.95 124.454 291.04 123.378C292.694 103.283 309.528 87.4929 330.051 87.4929C330.879 87.4929 331.699 87.5198 332.511 87.5737C347.494 88.5012 360.19 97.8646 365.924 110.964C369.273 107.974 373.32 105.874 377.693 104.859C382.066 103.843 386.625 103.945 390.949 105.154C396.578 106.733 401.537 110.11 405.069 114.769C408.601 119.428 410.512 125.115 410.512 130.962C410.502 132.19 410.408 133.416 410.232 134.631C413.922 133.569 417.808 133.38 421.583 134.079C425.358 134.778 428.919 136.345 431.983 138.658C435.048 140.97 437.533 143.964 439.24 147.402C440.948 150.841 441.833 154.63 441.824 158.469L441.831 158.477Z" fill="#CFE0FA"/>
<path d="M326.651 162.118C328.015 164.527 329.79 166.679 331.895 168.477L329.562 173.948L337.849 178.355L341.085 173.364C343.751 174.106 346.527 174.374 349.286 174.156L351.509 179.672L360.494 176.931L359.255 171.115C361.663 169.75 363.814 167.975 365.612 165.87L371.084 168.2L375.489 159.913L370.5 156.679C371.239 154.012 371.508 151.236 371.293 148.476L376.808 146.252L374.067 137.267L368.251 138.509C366.888 136.099 365.113 133.947 363.007 132.15L365.337 126.679L357.049 122.272L353.817 127.261C351.149 126.523 348.373 126.255 345.613 126.47L343.389 120.953L334.405 123.694L335.644 129.512C333.234 130.874 331.083 132.649 329.287 134.755L323.815 132.424L319.408 140.714L324.401 143.946C323.658 146.612 323.388 149.389 323.606 152.149L318.091 154.373L320.832 163.357L326.651 162.118ZM331.234 155.268C330.252 152.061 330.243 148.635 331.209 145.423C332.174 142.21 334.071 139.357 336.658 137.223C339.246 135.089 342.408 133.77 345.745 133.433C349.082 133.096 352.444 133.756 355.406 135.33C358.367 136.904 360.796 139.321 362.384 142.275C363.972 145.23 364.648 148.588 364.327 151.927C364.006 155.266 362.702 158.434 360.58 161.031C358.458 163.629 355.613 165.539 352.406 166.519C348.107 167.835 343.461 167.389 339.491 165.279C335.521 163.17 332.551 159.571 331.234 155.272V155.268Z" fill="#390D9F"/>
<path d="M373.138 147.953L377.064 146.369L374.993 139.594L374.596 139.715L376.555 146.127L372.984 147.568L373.138 147.953Z" fill="#CBCBCB"/>
<path d="M360.295 176.97L360.702 176.884L359.495 171.225C362.293 169.803 364.444 167.436 364.465 167.411L364.157 167.133C364.135 167.157 361.961 169.547 359.166 170.925L359.021 170.996L360.295 176.97Z" fill="#CBCBCB"/>
<path d="M337.897 164.571L338.135 164.23C327.221 156.566 331.598 144.89 331.644 144.774L331.256 144.629C331.209 144.742 326.719 156.722 337.897 164.571Z" fill="#CBCBCB"/>
<path d="M323.75 148.492C323.942 146.979 324.225 145.479 324.598 144L324.637 143.856L322.802 142.669L322.577 143.018L324.164 144.042C323.805 145.492 323.531 146.961 323.342 148.442L323.75 148.492Z" fill="#CBCBCB"/>
<path d="M346.707 173.713C342.616 174.208 339.449 173.207 338.716 172.946L335.468 177.96L326.843 173.373L329.186 167.868C327.107 166.147 325.375 164.047 324.079 161.68L318.228 162.926L315.371 153.576L320.92 151.34C320.658 148.652 320.92 145.939 321.69 143.351L316.67 140.101L321.258 131.474L326.758 133.816C328.901 131.052 332.239 129.112 332.952 128.714L331.703 122.862L341.055 120.003L343.292 125.553C347.584 125.147 350.571 126.067 351.282 126.317L354.531 121.304L363.156 125.89L360.817 131.384C363.293 133.17 365.478 136.83 365.914 137.587L371.77 136.338L374.627 145.688L369.076 147.927C369.271 150.613 369.011 153.312 368.305 155.911L373.327 159.165L368.741 167.79L363.239 165.448C361.012 168.243 357.758 170.154 357.047 170.55L358.296 176.403L348.942 179.261L346.707 173.713ZM356.581 170.332L356.718 170.26C356.755 170.24 360.575 168.2 363.011 165.067L363.109 164.943L368.555 167.261L372.787 159.302L367.821 156.083L367.868 155.938C368.609 153.297 368.874 150.546 368.653 147.811L368.64 147.667L374.122 145.456L371.485 136.827L365.702 138.061L365.628 137.929C365.604 137.884 363.133 133.49 360.444 131.637L360.299 131.54L362.623 126.086L354.663 121.853L351.439 126.83L351.284 126.768C351.25 126.755 347.998 125.499 343.172 125.988L343.018 126.004L340.814 120.508L332.185 123.146L333.419 128.933L333.275 129.005C333.236 129.026 329.317 131.101 326.983 134.198L326.886 134.327L321.438 132.006L317.204 139.966L322.178 143.187L322.123 143.34C322.111 143.376 320.852 146.929 321.34 151.455L321.357 151.611L315.875 153.822L318.512 162.451L324.306 161.217L324.376 161.361C325.673 163.782 327.438 165.92 329.569 167.652L329.692 167.748L327.374 173.192L335.334 177.425L338.559 172.447L338.716 172.512C338.751 172.524 342.189 173.892 346.818 173.292L346.976 173.27L349.18 178.756L357.811 176.119L356.581 170.332Z" fill="#101C3A"/>
<path d="M327.831 149.63C327.832 146.234 328.841 142.913 330.73 140.09C332.618 137.266 335.301 135.066 338.44 133.768C341.579 132.469 345.033 132.13 348.364 132.795C351.695 133.459 354.755 135.096 357.156 137.499C359.557 139.902 361.191 142.963 361.852 146.295C362.513 149.627 362.171 153.08 360.87 156.218C359.568 159.355 357.366 162.037 354.54 163.922C351.715 165.808 348.394 166.814 344.997 166.812C340.444 166.805 336.079 164.992 332.861 161.771C329.643 158.55 327.834 154.184 327.831 149.63ZM328.242 149.63C328.242 152.946 329.226 156.188 331.068 158.945C332.91 161.702 335.529 163.85 338.593 165.119C341.656 166.387 345.027 166.719 348.279 166.071C351.531 165.424 354.518 163.826 356.862 161.481C359.207 159.136 360.802 156.148 361.448 152.896C362.094 149.643 361.761 146.272 360.491 143.209C359.221 140.146 357.071 137.529 354.313 135.688C351.555 133.847 348.313 132.865 344.997 132.867C340.553 132.873 336.293 134.641 333.15 137.783C330.008 140.926 328.24 145.186 328.235 149.63H328.242Z" fill="#101C3A"/>
<path d="M171.958 360.745C172.102 363.147 159.445 365.864 143.684 366.814C127.923 367.763 122.257 365.644 122.111 363.242C121.966 360.84 127.403 359.059 143.161 358.115C158.919 357.172 171.814 358.343 171.958 360.745Z" fill="#101C3A"/>
<path d="M162.071 435.408C166.769 436.426 174.332 436.777 174.332 436.777C174.332 436.777 162.589 373.661 160.351 355.765C159.63 350.049 133.039 338.49 130.976 362.808C129.347 381.993 159.119 413.337 159.665 429.212C159.764 432.241 161.175 435.214 162.071 435.408Z" fill="#F8A3A2"/>
<path d="M160.1 433.517C160.1 433.517 157.196 455.097 164.246 451.601C171.825 447.851 186.511 451.216 186.511 451.216C186.511 451.216 185.983 437.922 180.147 435.796C166.316 430.76 166.328 420.948 166.328 420.948L160.1 433.517Z" fill="#F8A3A2"/>
<path d="M192.367 280.377C185.731 275.472 169.79 274.183 157.828 287.118C145.867 300.053 131.104 323.01 122.127 363.001C122.127 363.001 147.24 352.345 171.941 360.896C171.941 360.896 193.146 331.758 198.106 315.857C203.067 299.956 199.677 285.788 192.367 280.377Z" fill="#425FEC"/>
<path d="M131.517 592.503L150.203 600.738L165.608 578.567L142.206 568.251L131.517 592.503Z" fill="#F8A3A2"/>
<path d="M156.301 593.86C156.301 593.86 152.117 590.169 145.453 593.305C138.788 596.441 138.046 591.536 136.906 590.33C135.766 589.124 134.084 587.943 131.45 587.926C131.45 587.926 125.025 611.022 126.474 629.089L188.974 630.034C188.974 630.034 190.993 623.781 185.649 620.802C180.304 617.823 156.72 610.616 153.672 604.447C150.624 598.277 156.301 593.86 156.301 593.86Z" fill="#00B5F6"/>
<path d="M138.572 624.841L137.548 624.825C137.722 613.341 127.753 609.52 127.329 609.363L127.682 608.404C127.791 608.444 138.754 612.619 138.572 624.841Z" fill="#101C3A"/>
<path d="M126.166 623.367C126.067 625.614 126.429 627.595 126.472 629.091L188.972 630.036C188.972 630.036 189.916 627.115 188.806 624.313L126.166 623.367Z" fill="#101C3A"/>
<path d="M159.164 615.606L159.049 615.583C158.472 615.466 144.893 612.661 143.555 606.586C142.233 600.581 147.21 594.86 147.422 594.621L148.189 595.297C148.14 595.352 143.344 600.874 144.554 606.366C145.691 611.53 157.825 614.276 159.138 614.558L166.382 612.682L166.638 613.673L159.164 615.606Z" fill="#101C3A"/>
<path d="M158.96 608.652L152.402 610.786L152.719 611.76L159.277 609.625L158.96 608.652Z" fill="#101C3A"/>
<path d="M153.892 603.843L147.34 605.981L147.657 606.952L154.209 604.814L153.892 603.843Z" fill="#101C3A"/>
<path d="M160.321 502.398C150.927 512.252 146.858 513.272 133.587 542.193C129.826 550.39 115.3 618.474 115.3 618.474C119.828 625.44 157.359 613.51 178.259 617.691C178.259 617.691 206.408 548.14 206.408 499.611C206.408 486.383 176.718 485.196 160.321 502.398Z" fill="#FC721A"/>
<path d="M146.747 422.101C144.085 433.289 142.809 507.529 148.611 519.368C152.743 527.803 199.286 548.713 203.6 525.213C207.388 504.575 218.636 435.611 217.66 423.33C216.716 411.472 154.74 388.49 146.747 422.101Z" fill="#FC721A"/>
<path d="M144.097 522.038L143.279 521.422C151.934 509.937 167.385 515.098 167.541 515.15L167.208 516.116C167.059 516.066 152.302 511.153 144.097 522.038Z" fill="#101C3A"/>
<path d="M219.498 398.878C218.97 390.991 191.557 377.862 170.753 379.769L164.742 452.862C166.538 454.968 172.342 463.704 173.428 466.087C181.682 484.196 189.184 496.804 207.816 501.805C213.006 465.926 220.118 408.267 219.498 398.878Z" fill="#101C3A"/>
<path d="M232.727 592.37L251.509 600.386L266.652 578.037L243.132 567.996L232.727 592.37Z" fill="#F8A3A2"/>
<path d="M257.524 593.438C257.524 593.438 253.299 589.795 246.672 593.005C240.045 596.214 239.244 591.323 238.09 590.13C236.936 588.937 235.241 587.774 232.609 587.789C232.609 587.789 226.453 610.958 228.112 629.007L290.62 629.221C290.62 629.221 292.574 622.944 287.188 620.027C281.802 617.111 258.143 610.181 255.02 604.049C251.897 597.917 257.524 593.438 257.524 593.438Z" fill="#00B5F6"/>
<path d="M240.156 624.625H239.133C239.172 613.14 229.16 609.437 228.734 609.284L229.076 608.32C229.187 608.355 240.199 612.404 240.156 624.625Z" fill="#101C3A"/>
<path d="M227.739 623.293C227.667 625.542 228.05 627.517 228.111 629.013L290.618 629.226C290.618 629.226 291.529 626.295 290.386 623.508L227.739 623.293Z" fill="#101C3A"/>
<path d="M260.643 615.145L260.527 615.123C259.95 615.012 246.339 612.365 244.929 606.306C243.537 600.317 248.446 594.538 248.657 594.296L249.431 594.964C249.384 595.02 244.652 600.59 245.926 606.071C247.123 611.221 259.294 613.825 260.605 614.09L267.825 612.133L268.093 613.121L260.643 615.145Z" fill="#101C3A"/>
<path d="M260.35 608.199L253.818 610.411L254.147 611.381L260.679 609.169L260.35 608.199Z" fill="#101C3A"/>
<path d="M254.942 604.296L248.409 606.505L248.736 607.473L255.27 605.265L254.942 604.296Z" fill="#101C3A"/>
<path d="M220.437 513.484C215.861 526.305 193.584 585.804 211.782 626.698C218.75 631.223 251.533 619.358 272.344 616.009C272.344 616.009 281.167 539.495 262.977 483.106C258.912 470.516 228.427 491.102 220.437 513.484Z" fill="#FC721A"/>
<path d="M167.999 412.694C169.697 424.068 205.913 517.756 215.705 526.583C222.683 532.874 248.461 534.373 261.577 514.4C274.694 494.427 239.749 398.462 234.27 387.427C228.985 376.774 162.907 378.524 167.999 412.694Z" fill="#FC721A"/>
<path d="M231.299 276.681C247.599 286.617 253.929 311.137 255.101 353.267C256.272 395.397 263.793 422.834 259.167 433.759C259.167 433.759 210.519 478.059 139.678 449.797C139.678 449.797 141.842 437.746 146.66 385.522C151.478 333.297 151.356 319.131 158.304 298.756C165.253 278.381 198.242 259.791 207.15 264.694C216.089 269.614 218.713 269.01 231.299 276.681Z" fill="#425FEC"/>
<path d="M275.203 297.918C275.203 297.918 286.096 304.265 294.944 309.785C296.778 307.49 298.678 305.169 300.57 302.87C305.714 295.838 321.054 272.44 321.154 272.345C324.671 264.573 318.846 262.501 319.903 259.28C320.614 257.116 327.133 247.452 329.875 245.676C329.898 245.643 329.925 245.612 329.954 245.585C333.45 242.504 343.543 237.446 346.803 235.343C348.238 234.417 348.114 236.497 346.141 239.254C343.759 242.572 339.249 246.243 336.159 248.206C337.131 249.556 338.034 251.052 340.152 252.44C342.705 254.112 342.291 257.241 343.624 259.684C344.957 262.128 342.701 265.607 339.622 268.195C336.544 270.783 332.443 270.802 331.977 277.86C331.977 277.86 319.896 329.515 313.634 342.043C309.615 350.085 304.451 352.805 299.497 352.312C286.947 352.38 264.458 344.974 248.576 332.968C231.759 320.252 252.191 286.385 275.203 297.918Z" fill="#F8A3A2"/>
<path d="M209.481 282.869C205.082 288.125 201.854 295.908 211.252 309.67C220.65 323.431 246.66 341.805 269.148 351.875C269.148 351.875 296.888 326.321 288.866 301.117C288.866 301.117 250.389 282.365 237.445 277.46C224.502 272.556 214.333 277.073 209.481 282.869Z" fill="#425FEC"/>
<path d="M258.685 327.439C258.548 327.52 244.905 335.438 231.854 323.908L232.532 323.142C245.006 334.167 258.026 326.637 258.157 326.56L258.685 327.439Z" fill="white"/>
<path d="M280.421 339.889C275.354 347.443 269.933 352.388 269.857 352.456L269.661 352.634L269.405 352.576C269.081 352.504 236.851 345.205 218.755 325.012L219.516 324.329C236.538 343.322 266.276 350.783 269.366 351.517C270.808 350.16 279.905 341.314 284.873 329.686L285.813 330.089C284.324 333.516 282.519 336.797 280.421 339.889Z" fill="white"/>
<path d="M222.463 513.947C216.388 507.073 206.089 509.848 205.985 509.877L205.553 509.996L187.895 470.038L188.83 469.624L206.14 508.79C208.24 508.325 217.465 506.75 223.226 513.27L222.463 513.947Z" fill="#101C3A"/>
<path d="M185.444 411.047C173.038 411.047 165.345 404.253 165.23 404.147L165.918 403.39C166.088 403.544 183.181 418.598 207.617 402.813L208.174 403.678C199.591 409.216 191.883 411.047 185.444 411.047Z" fill="white"/>
<path d="M205.988 608.862C205.928 608.671 200.103 589.272 209.883 547.525L210.88 547.759C201.18 589.186 206.91 608.368 206.969 608.557L205.988 608.862Z" fill="#101C3A"/>
<path d="M214.737 263.97C214.737 263.97 211.156 260.136 207.013 252.584L214.081 254.315L214.737 263.97Z" fill="#101C3A"/>
<path d="M226.733 234.361C225.724 226.317 226.087 214.008 216.613 215.703C214.191 216.136 202.955 217.319 200.456 218.541C194.542 221.456 196.658 230.542 195.094 238.788C194.636 241.24 194.848 245.982 195.772 248.14L193.363 247.904L192.769 267.595C192.769 267.595 205.608 276.25 215.055 268.834L214.333 258.283C216.532 258.824 218.348 259.052 219.348 258.843C226.253 257.402 227.864 243.385 226.733 234.361Z" fill="#F8A3A2"/>
<path d="M222.815 220.019C221.95 220.439 219.287 221.534 219.287 221.534C219.287 221.534 218.737 228.347 217.781 230.91C216.825 233.474 220.344 242.306 225.073 243.052C229.801 243.798 226.957 248.911 226.596 251.097C226.08 254.221 229.059 257.444 223.226 259.681C219.34 261.171 209.442 259.207 211.856 252.942C214.271 246.677 218.492 238.825 213.934 232.129C209.375 225.433 214.89 240.441 206.532 246.088C204.224 247.652 202.378 248.947 200.926 250.005C198.618 251.687 195.578 251.563 193.173 250.016C192.903 249.842 192.612 249.703 192.307 249.602C189.867 248.802 182.748 240.618 182.234 229.84C181.721 219.062 186.526 215.288 196.041 213.144C205.556 211.001 202.049 207.064 207.982 205.796C213.915 204.528 221.301 197.176 221.301 197.176C221.301 197.176 230.728 216.174 222.815 220.019Z" fill="#101C3A"/>
<path d="M204.081 238.339C205.824 241.759 209.613 243.322 212.545 241.829C215.476 240.336 216.439 236.347 214.694 232.93C212.948 229.513 209.162 227.947 206.231 229.44C203.299 230.933 202.332 234.919 204.081 238.339Z" fill="#F8A3A2"/>
<path d="M212.881 239.275C212.743 239.44 212.577 239.578 212.39 239.682C212.196 239.786 211.98 239.844 211.759 239.851C211.538 239.858 211.319 239.815 211.118 239.724C210.163 239.33 210.108 238.587 210.064 237.993C210.019 237.399 209.98 236.869 209.267 236.275C208.7 235.803 208.09 235.63 207.552 235.479C206.623 235.215 205.571 234.918 205.781 233.086C205.81 232.798 205.899 232.519 206.041 232.267C206.182 232.014 206.374 231.794 206.604 231.619C207.972 230.547 210.593 230.866 210.703 230.88L210.574 231.89C209.935 231.809 208.09 231.746 207.235 232.419C207.113 232.512 207.012 232.629 206.938 232.763C206.863 232.897 206.817 233.044 206.802 233.197C206.691 234.163 206.933 234.232 207.835 234.495C208.439 234.667 209.192 234.88 209.926 235.49C210.971 236.356 211.039 237.262 211.088 237.918C211.13 238.482 211.155 238.639 211.512 238.784C211.573 238.816 211.641 238.833 211.709 238.833C211.778 238.833 211.846 238.816 211.907 238.784C212.298 238.573 212.568 237.746 212.637 237.379L213.647 237.569C213.614 237.697 213.422 238.649 212.881 239.275Z" fill="#101C3A"/>
<path d="M150.385 348.029L149.528 348.013C150.076 320.8 158.271 297.631 158.355 297.401L159.161 297.69C159.079 297.919 150.93 320.963 150.385 348.029Z" fill="white"/>
<path d="M441.623 423.589H129.611V425.705H441.623V423.589Z" fill="#131313"/>
</g>
</g>
<defs>
<clipPath id="clip0_9_696">
<rect width="338.7" height="545.015" fill="white" transform="translate(115.3 85.019)"/>
</clipPath>
</defs>
</svg>
